<?xml version="1.0" encoding="UTF-8"?>
<!DOCTYPE svg PUBLIC "-//W3C//DTD SVG 1.1//EN" "http://www.w3.org/Graphics/SVG/1.1/DTD/svg11.dtd">
<!-- Creator: CorelDRAW 2020 (64-Bit) -->
<svg xmlns="http://www.w3.org/2000/svg" xml:space="preserve" width="500mm" height="500mm" version="1.1" style="shape-rendering:geometricPrecision; text-rendering:geometricPrecision; image-rendering:optimizeQuality; fill-rule:evenodd; clip-rule:evenodd"
viewBox="0 0 50000 50000"
 xmlns:xlink="http://www.w3.org/1999/xlink"
 xmlns:xodm="http://www.corel.com/coreldraw/odm/2003">
 <defs>
  <style type="text/css">
   <![CDATA[
    .fil0 {fill:url(#id0);fill-rule:nonzero}
   ]]>
  </style>
  <linearGradient id="id0" gradientUnits="userSpaceOnUse" x1="5.81" y1="25013.07" x2="50007.26" y2="25013.07">
   <stop offset="0" style="stop-opacity:1; stop-color:#193c73"/>
   <stop offset="1" style="stop-opacity:1; stop-color:#32b8f7"/>
  </linearGradient>
 </defs>
 <g id="Layer_x0020_1">
  <metadata id="CorelCorpID_0Corel-Layer"/>
  <path class="fil0" d="M40677.99 13.07l-31345.82 0c-5142.27,0 -9326.36,4184.08 -9326.36,9327.81l0 3169.28 0 2177.7 0 20650.41 0 4693.67 0 653.31c0,5143.73 4184.09,9327.82 9327.82,9327.82l31345.81 0c5143.73,0 9327.82,-4184.09 9327.82,-9327.82l0 -31344.37c-1.45,-5143.73 -4186.99,-9327.81 -9329.27,-9327.81zm6836.53 10299.07l0 603.95 0 27852.79 0 444.25 0 1473.58c0,3770.33 -3067.65,6837.98 -6837.98,6837.98l-31344.37 -0.01c-3770.33,0 -6836.53,-3067.65 -6836.53,-6837.98l0 -5346.98 429.74 0c2081.88,0 3770.33,-1688.44 3770.33,-3770.33l0 -13109.76c0,-2081.88 -1688.44,-3770.33 -3770.33,-3770.33l-429.74 0.01 0 -5348.43c0,-3770.33 3067.65,-6836.53 6836.53,-6836.53l31345.82 0.01c3770.33,0 6837.98,3067.65 6837.98,6836.53l0 971.25 -1.45 0z"/>
 </g>
</svg>
