<?xml version="1.0" encoding="utf-8"?>
<!-- Generator: Adobe Illustrator 23.0.2, SVG Export Plug-In . SVG Version: 6.00 Build 0)  -->
<svg version="1.1" id="Layer_1" xmlns="http://www.w3.org/2000/svg" xmlns:xlink="http://www.w3.org/1999/xlink" x="0px" y="0px"
	 viewBox="0 0 452.3 641.3" style="enable-background:new 0 0 452.3 641.3;" xml:space="preserve">
<style type="text/css">
	.st0{fill:#070404;}
	.st1{fill:#2C0D0D;}
	.st2{fill:#070202;}
	.st3{filter:url(#Adobe_OpacityMaskFilter);}
	.st4{opacity:0.47;mask:url(#SVGID_1_);}
	.st5{fill:#FFFFFF;}
	.st6{fill:#231F20;}
	.st7{fill:#565353;}
	.st8{opacity:0.13;}
	.st9{clip-path:url(#SVGID_3_);}
	.st10{fill:url(#SVGID_6_);}
	.st11{fill:url(#SVGID_7_);}
	.st12{fill:url(#SVGID_8_);}
	.st13{fill:url(#SVGID_9_);}
	.st14{fill:url(#SVGID_10_);}
	.st15{fill:url(#SVGID_11_);}
	.st16{fill:url(#SVGID_12_);}
	.st17{fill:url(#SVGID_13_);}
	.st18{fill:url(#SVGID_14_);}
	.st19{fill:url(#SVGID_15_);}
</style>
<g>
	<g>
		
			<image style="overflow:visible;opacity:0.85;" width="1930" height="2611" xlink:href="20AAEEC7.png"  transform="matrix(0.24 0 0 0.24 -5.7304 6.9291)">
		</image>
		<g>
			<path class="st0" d="M431.7,219.2V88.9L382,32.5h-52.1h-5.5h-197H91.6H69.7L20,88.9v130.3l5.1,6.4v207.4l-5.1,6.4v112l49.7,56.4
				h45.9h223.9H382l49.7-56.4v-112l-5.1-6.4V225.7L431.7,219.2z M409.9,562.8H45.1V81.2h364.7V562.8z"/>
		</g>
	</g>
	<g>
		<path class="st1" d="M431.7,219.2V88.9L382,32.5h-52.1h-5.5h-197H91.6H69.7L20,88.9v130.3l5.1,6.4v207.4l-5.1,6.4v112l49.7,56.4
			h45.9l0,0h223.9l0,0H382l49.7-56.4v-112l-5.1-6.4V225.7L431.7,219.2z M386.5,543.3H65.2v-84.8V213.2V102.1c0-2.7,2.2-4.9,4.9-4.9
			h316.4v116v245.2V543.3z"/>
	</g>
	<g>
		<rect x="65.2" y="543" class="st2" width="321.4" height="0"/>
		<path class="st2" d="M431.7,219V88.7L382,32.3h-52.1h-5.5h-197H91.6H69.7L20,88.7V219l22.9,29.1v162.1L20,439.3v112l49.7,56.4
			h45.9h223.9H382l49.7-56.4v-112l-22.9-29.1V248.1L431.7,219z M424.6,441.7v106.9l-45.8,52h-32.6h-18.5h-10.4l-6.7-6.4h-83.9h-1.4
			h-83.9l-6.7,6.4H124h-19.4H72.9l-45.8-52V441.7L50,412.6v-47.2v-91v-28.9l-22.9-29.1V91.4l45.8-52H124l19.4,22.9H221h9.7h77.6
			l19.4-22.9h51.1l45.8,52v125.2l-22.1,28v169.1L424.6,441.7z"/>
	</g>
	<g>
		<rect x="25.1" y="213.2" class="st0" width="40.1" height="245.2"/>
		<rect x="386.5" y="213.2" class="st0" width="40.1" height="245.2"/>
	</g>
	<g>
		<path class="st2" d="M431.7,219.2V88.9L382,32.5h-52.1h-5.5h-197H91.6H69.7L20,88.9v130.3l22.9,29.1v162.1L20,439.5v112l49.7,56.4
			h45.9l0,0h223.9l0,0H382l49.7-56.4v-112l-22.9-29.1V248.3L431.7,219.2z M386.5,543.3H65.2V102.1c0-2.7,2.2-4.9,4.9-4.9h316.4
			V543.3z"/>
	</g>
	<defs>
		<filter id="Adobe_OpacityMaskFilter" filterUnits="userSpaceOnUse" x="20" y="32.5" width="411.7" height="575.4">
			
				<feColorMatrix  type="matrix" values="-1 0 0 0 1  0 -1 0 0 1  0 0 -1 0 1  0 0 0 1 0" color-interpolation-filters="sRGB" result="source"/>
		</filter>
	</defs>
	<mask maskUnits="userSpaceOnUse" x="20" y="32.5" width="411.7" height="575.4" id="SVGID_1_">
		<g class="st3">
			
				<image style="overflow:visible;" width="1733" height="2418" xlink:href="20AAEEC5.jpg"  transform="matrix(0.24 0 0 0.24 17.8926 30.3329)">
			</image>
		</g>
	</mask>
	<g class="st4">
		<path class="st5" d="M431.7,219.2V88.9L382,32.5h-52.1h-5.5h-197H91.6H69.7L20,88.9v130.3l22.9,29.1v162.1L20,439.5v112l49.7,56.4
			h45.9l0,0h223.9l0,0H382l49.7-56.4v-112l-22.9-29.1V248.3L431.7,219.2z M386.5,543.3H65.2V102.1c0-2.7,2.2-4.9,4.9-4.9h316.4
			V543.3z"/>
	</g>
	<path class="st6" d="M401.7,274.8v-28.9l22.9-29.1V91.6l-45.8-52h-51.1H124H72.9l-45.8,52v125.2L50,245.9v28.9v91v47.2L27.1,442
		v106.9l45.8,52h31.7H124h10.4l6.7-6.4h83.9h1.4h83.9l6.7,6.4h10.4h18.5h32.6l45.8-52V442l-22.9-29.1v-47.2V274.8z M393.6,550.3
		H58.1V102.1c0-6.6,5.4-12,12-12h323.5V550.3z"/>
	<path class="st7" d="M424.6,216.8V91.6l-45.8-52h-51.1l-19.4,22.9h-77.6H221h-77.6L124,39.6H72.9l-45.8,52v125.2L50,245.9v28.9v91
		v47.2L27.1,442v106.9l45.8,52h31.7H124h10.4l6.7-6.4h83.9h1.4h83.9l6.7,6.4h10.4h18.5h32.6l45.8-52V442l-22.1-28V244.8L424.6,216.8
		z M386.5,97.2v446H65.2V102.1c0-2.7,2.2-4.9,4.9-4.9H386.5z"/>
	<g class="st8">
		<g>
			<defs>
				<path id="SVGID_2_" d="M424.6,216.8V91.6l-45.8-52h-51.1l-19.4,22.9h-77.6H221h-77.6L124,39.6H72.9l-45.8,52v125.2L50,245.9
					v28.9v91v47.2L27.1,442v106.9l45.8,52h31.7H124h10.4l6.7-6.4h83.9h1.4h83.9l6.7,6.4h10.4h18.5h32.6l45.8-52V442l-22.1-28V244.8
					L424.6,216.8z M386.5,97.2v446H65.2V102.1c0-2.7,2.2-4.9,4.9-4.9H386.5z"/>
			</defs>
			<clipPath id="SVGID_3_">
				<use xlink:href="#SVGID_2_"  style="overflow:visible;"/>
			</clipPath>
			<g class="st9">
				<g>
					<defs>
						<rect id="SVGID_4_" x="22.1" y="34.6" width="407.5" height="571.2"/>
					</defs>
					<clipPath id="SVGID_5_">
						<use xlink:href="#SVGID_4_"  style="overflow:visible;"/>
					</clipPath>
					<g style="clip-path:url(#SVGID_5_);">
						
							<image style="overflow:visible;" width="850" height="1191" xlink:href="20AAEECB.jpg"  transform="matrix(0.48 0 0 0.48 21.9414 34.6009)">
						</image>
					</g>
				</g>
			</g>
		</g>
	</g>
	<g>
		
			<image style="overflow:visible;opacity:0.81;" width="851" height="179" xlink:href="20AAEECD.png"  transform="matrix(0.24 0 0 0.24 123.7336 23.593)">
		</image>
		
			<image style="overflow:visible;opacity:0.81;" width="851" height="179" xlink:href="20AAEECF.png"  transform="matrix(0.24 0 0 0.24 123.7336 23.593)">
		</image>
		<g>
			<linearGradient id="SVGID_6_" gradientUnits="userSpaceOnUse" x1="286.7444" y1="49.2905" x2="286.7444" y2="40.6146">
				<stop  offset="0" style="stop-color:#DBDBDB"/>
				<stop  offset="1" style="stop-color:#FFFFFF"/>
			</linearGradient>
			<polygon class="st10" points="300,40.6 280.9,40.6 273.5,49.3 292.6,49.3 			"/>
			<linearGradient id="SVGID_7_" gradientUnits="userSpaceOnUse" x1="305.1031" y1="49.2905" x2="305.1031" y2="40.6146">
				<stop  offset="0" style="stop-color:#DBDBDB"/>
				<stop  offset="1" style="stop-color:#FFFFFF"/>
			</linearGradient>
			<polygon class="st11" points="299.4,49.3 303.5,49.3 310.8,40.6 306.8,40.6 			"/>
			<linearGradient id="SVGID_8_" gradientUnits="userSpaceOnUse" x1="224.1735" y1="49.2905" x2="224.1735" y2="40.6146">
				<stop  offset="0" style="stop-color:#DBDBDB"/>
				<stop  offset="1" style="stop-color:#FFFFFF"/>
			</linearGradient>
			<polygon class="st12" points="266.7,49.3 274.1,40.6 174.3,40.6 181.6,49.3 			"/>
			<linearGradient id="SVGID_9_" gradientUnits="userSpaceOnUse" x1="156.1696" y1="49.2905" x2="156.1696" y2="40.6146">
				<stop  offset="0" style="stop-color:#DBDBDB"/>
				<stop  offset="1" style="stop-color:#FFFFFF"/>
			</linearGradient>
			<polygon class="st13" points="164.1,40.6 140.9,40.6 148.2,49.3 171.4,49.3 			"/>
		</g>
	</g>
	<g>
		
			<image style="overflow:visible;opacity:0.81;" width="851" height="179" xlink:href="20AAEECC.png"  transform="matrix(-0.24 0 0 -0.1875 327.9735 617.9937)">
		</image>
		
			<image style="overflow:visible;opacity:0.81;" width="851" height="179" xlink:href="20AAEECB.png"  transform="matrix(-0.24 0 0 -0.1875 327.9735 617.9937)">
		</image>
		<g>
			
				<linearGradient id="SVGID_10_" gradientUnits="userSpaceOnUse" x1="286.7445" y1="116.7067" x2="286.7445" y2="109.9285" gradientTransform="matrix(-1 0 0 -1 451.7071 714.6238)">
				<stop  offset="0" style="stop-color:#DBDBDB"/>
				<stop  offset="1" style="stop-color:#FFFFFF"/>
			</linearGradient>
			<polygon class="st14" points="151.7,604.7 170.8,604.7 178.2,597.9 159.1,597.9 			"/>
			
				<linearGradient id="SVGID_11_" gradientUnits="userSpaceOnUse" x1="305.1032" y1="116.7067" x2="305.1032" y2="109.9285" gradientTransform="matrix(-1 0 0 -1 451.7071 714.6238)">
				<stop  offset="0" style="stop-color:#DBDBDB"/>
				<stop  offset="1" style="stop-color:#FFFFFF"/>
			</linearGradient>
			<polygon class="st15" points="152.3,597.9 148.3,597.9 140.9,604.7 145,604.7 			"/>
			
				<linearGradient id="SVGID_12_" gradientUnits="userSpaceOnUse" x1="224.1736" y1="116.7067" x2="224.1736" y2="109.9285" gradientTransform="matrix(-1 0 0 -1 451.7071 714.6238)">
				<stop  offset="0" style="stop-color:#DBDBDB"/>
				<stop  offset="1" style="stop-color:#FFFFFF"/>
			</linearGradient>
			<polygon class="st16" points="185,597.9 177.6,604.7 277.4,604.7 270.1,597.9 			"/>
			
				<linearGradient id="SVGID_13_" gradientUnits="userSpaceOnUse" x1="156.1697" y1="116.7067" x2="156.1697" y2="109.9285" gradientTransform="matrix(-1 0 0 -1 451.7071 714.6238)">
				<stop  offset="0" style="stop-color:#DBDBDB"/>
				<stop  offset="1" style="stop-color:#FFFFFF"/>
			</linearGradient>
			<polygon class="st17" points="287.6,604.7 310.8,604.7 303.5,597.9 280.3,597.9 			"/>
		</g>
	</g>
	<g>
		<g>
			<g>
				<circle class="st5" cx="409.9" cy="119.7" r="3.9"/>
				<circle class="st5" cx="409.9" cy="178.9" r="3.9"/>
				<circle class="st5" cx="409.9" cy="129" r="2.8"/>
				<circle class="st5" cx="409.9" cy="137.1" r="2.8"/>
				<circle class="st5" cx="409.9" cy="145.2" r="2.8"/>
				<circle class="st5" cx="409.9" cy="153.3" r="2.8"/>
				<circle class="st5" cx="409.9" cy="161.5" r="2.8"/>
				<circle class="st5" cx="409.9" cy="169.6" r="2.8"/>
			</g>
			<g>
				<circle class="st5" cx="45.1" cy="119.7" r="3.9"/>
				<circle class="st5" cx="45.1" cy="178.9" r="3.9"/>
				<circle class="st5" cx="45.1" cy="129" r="2.8"/>
				<circle class="st5" cx="45.1" cy="137.1" r="2.8"/>
				<circle class="st5" cx="45.1" cy="145.2" r="2.8"/>
				<circle class="st5" cx="45.1" cy="153.3" r="2.8"/>
				<circle class="st5" cx="45.1" cy="161.5" r="2.8"/>
				<circle class="st5" cx="45.1" cy="169.6" r="2.8"/>
			</g>
		</g>
		<g>
			<g>
				<circle class="st5" cx="409.9" cy="462.4" r="3.9"/>
				<circle class="st5" cx="409.9" cy="521.5" r="3.9"/>
				<circle class="st5" cx="409.9" cy="471.6" r="2.8"/>
				<circle class="st5" cx="409.9" cy="479.8" r="2.8"/>
				<circle class="st5" cx="409.9" cy="487.9" r="2.8"/>
				<circle class="st5" cx="409.9" cy="496" r="2.8"/>
				<circle class="st5" cx="409.9" cy="504.1" r="2.8"/>
				<circle class="st5" cx="409.9" cy="512.3" r="2.8"/>
			</g>
			<g>
				<circle class="st5" cx="45.1" cy="462.4" r="3.9"/>
				<circle class="st5" cx="45.1" cy="521.5" r="3.9"/>
				<circle class="st5" cx="45.1" cy="471.6" r="2.8"/>
				<circle class="st5" cx="45.1" cy="479.8" r="2.8"/>
				<circle class="st5" cx="45.1" cy="487.9" r="2.8"/>
				<circle class="st5" cx="45.1" cy="496" r="2.8"/>
				<circle class="st5" cx="45.1" cy="504.1" r="2.8"/>
				<circle class="st5" cx="45.1" cy="512.3" r="2.8"/>
			</g>
		</g>
	</g>
	<g>
		
			<image style="overflow:visible;opacity:0.75;" width="170" height="851" xlink:href="20AAEEC5.png"  transform="matrix(0.24 0 0 0.24 396.6136 227.833)">
		</image>
		
			<image style="overflow:visible;opacity:0.75;" width="170" height="851" xlink:href="20AAEEC4.png"  transform="matrix(0.24 0 0 0.24 396.6136 227.833)">
		</image>
		<g>
			
				<linearGradient id="SVGID_14_" gradientUnits="userSpaceOnUse" x1="407.068" y1="346.2678" x2="413.6673" y2="346.2678" gradientTransform="matrix(-1 0 0 -1 827.3723 676.194)">
				<stop  offset="0" style="stop-color:#FFFFFF"/>
				<stop  offset="5.236948e-02" style="stop-color:#FAFAFA"/>
				<stop  offset="0.118" style="stop-color:#EBEAEA"/>
				<stop  offset="0.1908" style="stop-color:#D1D0D0"/>
				<stop  offset="0.2688" style="stop-color:#AEADAD"/>
				<stop  offset="0.3508" style="stop-color:#817F7F"/>
				<stop  offset="0.4364" style="stop-color:#4A4747"/>
				<stop  offset="0.5232" style="stop-color:#0A0606"/>
				<stop  offset="0.5251" style="stop-color:#090404"/>
				<stop  offset="0.5636" style="stop-color:#2D2828"/>
				<stop  offset="0.6294" style="stop-color:#646161"/>
				<stop  offset="0.6956" style="stop-color:#939191"/>
				<stop  offset="0.7607" style="stop-color:#BAB9B9"/>
				<stop  offset="0.8244" style="stop-color:#D8D7D7"/>
				<stop  offset="0.8864" style="stop-color:#EEEDED"/>
				<stop  offset="0.9458" style="stop-color:#FBFBFB"/>
				<stop  offset="1" style="stop-color:#FFFFFF"/>
			</linearGradient>
			<polygon class="st18" points="420.3,410.8 420.3,404.1 420.3,384.9 420.3,378.2 420.3,278.4 420.3,268.2 420.3,254.9 420.3,245 
				413.7,252.3 413.7,265.2 413.7,275.5 413.7,285.7 413.7,370.8 413.7,377.6 413.7,396.7 413.7,403.5 413.7,407.5 420.3,414.9 			
				"/>
		</g>
	</g>
	<g>
		
			<image style="overflow:visible;opacity:0.75;" width="170" height="851" xlink:href="B8B482C4.png"  transform="matrix(-0.24 0 0 -0.24 56.4946 432.073)">
		</image>
		
			<image style="overflow:visible;opacity:0.75;" width="170" height="851" xlink:href="B8B482C3.png"  transform="matrix(-0.24 0 0 -0.24 56.4946 432.073)">
		</image>
		<g>
			
				<linearGradient id="SVGID_15_" gradientUnits="userSpaceOnUse" x1="805.9869" y1="346.2678" x2="812.5862" y2="346.2678" gradientTransform="matrix(1 0 0 1 -773.1831 -16.2879)">
				<stop  offset="0" style="stop-color:#FFFFFF"/>
				<stop  offset="5.236948e-02" style="stop-color:#FAFAFA"/>
				<stop  offset="0.118" style="stop-color:#EBEAEA"/>
				<stop  offset="0.1908" style="stop-color:#D1D0D0"/>
				<stop  offset="0.2688" style="stop-color:#AEADAD"/>
				<stop  offset="0.3508" style="stop-color:#817F7F"/>
				<stop  offset="0.4364" style="stop-color:#4A4747"/>
				<stop  offset="0.5232" style="stop-color:#0A0606"/>
				<stop  offset="0.5251" style="stop-color:#090404"/>
				<stop  offset="0.5636" style="stop-color:#2D2828"/>
				<stop  offset="0.6294" style="stop-color:#646161"/>
				<stop  offset="0.6956" style="stop-color:#939191"/>
				<stop  offset="0.7607" style="stop-color:#BAB9B9"/>
				<stop  offset="0.8244" style="stop-color:#D8D7D7"/>
				<stop  offset="0.8864" style="stop-color:#EEEDED"/>
				<stop  offset="0.9458" style="stop-color:#FBFBFB"/>
				<stop  offset="1" style="stop-color:#FFFFFF"/>
			</linearGradient>
			<polygon class="st19" points="32.8,249.1 32.8,255.9 32.8,275 32.8,281.8 32.8,381.6 32.8,391.7 32.8,405 32.8,414.9 39.4,407.6 
				39.4,394.7 39.4,384.4 39.4,374.2 39.4,289.1 39.4,282.3 39.4,263.2 39.4,256.4 39.4,252.4 32.8,245 			"/>
		</g>
	</g>
</g>
</svg>
