<?xml version="1.0" encoding="UTF-8"?>
<svg version="1.1" xmlns="http://www.w3.org/2000/svg" width="467" height="223">
<path d="M0 0 C0.66 0.66 1.32 1.32 2 2 C5.29532883 2.10214631 8.54323727 1.92971475 11.8359375 1.77734375 C15.31410735 2.02210385 16.66618041 2.43049912 19 5 C19 6.32 19 7.64 19 9 C20.051875 9.12375 21.10375 9.2475 22.1875 9.375 C28.18566775 10.35830619 28.18566775 10.35830619 31 12 C31.433125 12.94875 31.86625 13.8975 32.3125 14.875 C34.40118411 18.74293354 36.32002635 19.49627474 40.2578125 21.140625 C42 22 42 22 43 24 C42.9175 25.299375 42.835 26.59875 42.75 27.9375 C42.64100574 30.05739637 42.64100574 30.05739637 43 32 C45.3549963 34.08216876 45.3549963 34.08216876 48 35 C48.04125 33.783125 48.0825 32.56625 48.125 31.3125 C48.59413597 27.74326285 49.04959292 26.94048849 51.5 24 C54.84080067 21.61140822 57.91756245 21.38789551 61.9453125 21.65234375 C64.83264868 22.14088542 66.18700179 22.65821065 68 25 C69.3369735 30.24504988 68.83005119 34.74300914 68 40 C68.66 40 69.32 40 70 40 C69.67 45.28 69.34 50.56 69 56 C70.65 56.33 72.3 56.66 74 57 C77.46118467 59.63039091 78.83690467 61.05479771 79.58349609 65.3815918 C79.56367676 66.64140869 79.54385742 67.90122559 79.5234375 69.19921875 C79.51873444 69.87547806 79.51403137 70.55173737 79.50918579 71.24848938 C79.48793931 73.39588798 79.4313725 75.54076769 79.375 77.6875 C79.35848192 79.14125276 79.34413668 80.59503193 79.33203125 82.04882812 C79.19719794 92.60560411 79.19719794 92.60560411 78 95 C94.47238778 95.02336326 110.94477018 95.04099603 127.41717052 95.05181217 C135.06563559 95.05696784 142.71409037 95.06399667 150.36254883 95.07543945 C157.0291567 95.08540855 163.69575711 95.09185874 170.36237222 95.09408849 C173.89208004 95.09539181 177.42176653 95.09845376 180.95146751 95.10573006 C184.89237238 95.11378809 188.83325639 95.1139897 192.77416992 95.11352539 C193.94373734 95.11712067 195.11330475 95.12071594 196.3183136 95.12442017 C197.39378448 95.1230455 198.46925537 95.12167084 199.57731628 95.12025452 C200.50924899 95.12117631 201.4411817 95.1220981 202.40135479 95.12304783 C205.0590746 94.99720277 207.43686463 94.72032403 210 94 C213.1133075 88.70285329 212.3294926 82.44740989 212.3125 76.5 C212.32861328 75.37207031 212.34472656 74.24414062 212.36132812 73.08203125 C212.36197266 71.99277344 212.36261719 70.90351563 212.36328125 69.78125 C212.36626221 68.79189453 212.36924316 67.80253906 212.37231445 66.78320312 C211.80411595 62.53568648 210.08274517 59.89713171 206.8125 57.1875 C206.214375 56.795625 205.61625 56.40375 205 56 C208.44730584 55.60602219 209.75613114 55.8355303 212.6875 57.8125 C215.33047746 60.31261382 216.88452097 61.95379881 217.29052734 65.63208008 C217.33964899 69.02596317 217.37131659 72.41823365 217.375 75.8125 C217.39949219 76.98876953 217.42398437 78.16503906 217.44921875 79.37695312 C217.48207129 89.06297608 217.48207129 89.06297608 215.2890625 92.69921875 C210.98916184 97.02113255 206.79743051 97.23261287 200.96549082 97.27214891 C200.03018329 97.26836958 199.09487576 97.26459026 198.13122559 97.26069641 C196.62940365 97.26643473 196.62940365 97.26643473 195.09724188 97.27228898 C191.73860281 97.282617 188.38013476 97.27862717 185.02148438 97.2746582 C182.61509543 97.27900474 180.20870788 97.28418769 177.80232239 97.29014587 C171.94253224 97.30215955 166.0827846 97.30468668 160.22298682 97.30234561 C155.46055759 97.30056247 150.69814228 97.302312 145.93571472 97.30657005 C144.91895106 97.30746284 144.91895106 97.30746284 143.88164672 97.30837366 C142.50461805 97.3095854 141.12758937 97.31079954 139.7505607 97.31201603 C126.83850081 97.3228911 113.92646703 97.32072906 101.01440567 97.31463119 C89.20049137 97.30946036 77.38665948 97.32072188 65.57276148 97.33972941 C53.44188811 97.35909733 41.31105375 97.36736576 29.18016481 97.36360615 C22.36969064 97.36169273 15.55928664 97.36419547 8.74882507 97.37832069 C2.34665084 97.39146481 -4.05539947 97.38898873 -10.45757484 97.37590981 C-12.80981311 97.37353681 -15.16206288 97.37630441 -17.51428795 97.38453293 C-20.7201278 97.39494067 -23.92540633 97.38694757 -27.13122559 97.3742218 C-28.06653311 97.38159609 -29.00184064 97.38897037 -29.96549082 97.39656812 C-34.79706174 97.35609529 -38.08595844 97.16596758 -42 94 C-45.58842161 89.02301524 -44.36911505 81.90331037 -44.375 76.0625 C-44.39949219 74.78697266 -44.42398438 73.51144531 -44.44921875 72.19726562 C-44.45308594 70.96814453 -44.45695313 69.73902344 -44.4609375 68.47265625 C-44.46915527 67.35125244 -44.47737305 66.22984863 -44.48583984 65.07446289 C-43.89469658 61.33362512 -42.61231198 59.68928786 -40 57 C-39.01 56.505 -39.01 56.505 -38 56 C-37.52998967 52.72444392 -37.52998967 52.72444392 -37.375 48.9375 C-37.26285156 47.00197266 -37.26285156 47.00197266 -37.1484375 45.02734375 C-37.09945312 44.02832031 -37.05046875 43.02929688 -37 42 C-35.515 41.505 -35.515 41.505 -34 41 C-34.66 35.39 -35.32 29.78 -36 24 C-35.34 24 -34.68 24 -34 24 C-34.33 23.01 -34.66 22.02 -35 21 C-35.96754015 16.25025746 -36.33529622 13.30440693 -34 9 C-25.12516032 3.03494382 -10.73933496 -1.87339312 0 0 Z " fill="#854B16" transform="translate(215,59)"/>
<path d="M0 0 C1.16665192 -0.00412399 2.33330383 -0.00824799 3.53530884 -0.01249695 C4.81132965 -0.00171112 6.08735046 0.00907471 7.40203857 0.02018738 C8.76221701 0.02103379 10.12239682 0.02055822 11.48257446 0.01885986 C15.17242273 0.01799904 18.86197849 0.03563868 22.55175877 0.05658174 C26.40879903 0.07533411 30.26584599 0.07709784 34.1229248 0.08065796 C41.42562873 0.08998267 48.72819794 0.11460217 56.03084254 0.14470643 C64.34514745 0.17823721 72.6594588 0.19473311 80.97381449 0.20979273 C98.07594367 0.24115139 115.17794172 0.29392013 132.27996826 0.36076355 C130.99791209 1.82000446 129.71585592 3.27924538 128.43379974 4.73848629 C126.56155379 7.37084819 126.66598622 9.72891522 126.68621826 12.8959198 C126.68879639 14.11730652 126.69137451 15.33869324 126.69403076 16.59709167 C126.72239014 17.85972839 126.75074951 19.12236511 126.77996826 20.42326355 C126.77739014 21.68976746 126.77481201 22.95627136 126.77215576 24.26115417 C126.73022923 32.32393433 126.73022923 32.32393433 130.27996826 39.36076355 C131.26996826 40.02076355 132.25996826 40.68076355 133.27996826 41.36076355 C115.66868661 41.43089317 98.05744863 41.48377106 80.44605923 41.51620007 C72.26849635 41.53165868 64.09102032 41.55272892 55.91351318 41.58708191 C48.78469806 41.61701512 41.65594585 41.63634587 34.52706963 41.64302903 C30.75354191 41.64693467 26.98019413 41.65609233 23.20672417 41.67795372 C19.65185549 41.69838096 16.09724014 41.70458485 12.54231834 41.70008659 C10.62206153 41.70129989 8.70183204 41.71740934 6.78164673 41.73402405 C0.52986454 41.71168135 -4.25925782 41.5400195 -9.72003174 38.36076355 C-12.61523092 34.83951543 -13.10310603 32.0714227 -13.11846924 27.57951355 C-13.12233643 26.49025574 -13.12620361 25.40099792 -13.13018799 24.2787323 C-13.11858643 23.15080261 -13.10698486 22.02287292 -13.09503174 20.86076355 C-13.1066333 19.73283386 -13.11823486 18.60490417 -13.13018799 17.4427948 C-13.1263208 16.35353699 -13.12245361 15.26427917 -13.11846924 14.14201355 C-13.11508545 13.15265808 -13.11170166 12.16330261 -13.10821533 11.14396667 C-12.54038811 7.07275261 -10.96814939 4.51797862 -7.96971512 1.73792553 C-5.12387649 -0.00417774 -3.32571711 -0.00907014 0 0 Z " fill="#2F3462" transform="translate(44.72003173828125,114.63923645019531)"/>
<path d="M0 0 C17.23738353 -0.09347806 34.47468785 -0.16399613 51.71226692 -0.20724869 C59.71614179 -0.22786621 67.71985909 -0.25597116 75.72363281 -0.30175781 C82.70045162 -0.34165058 89.6771563 -0.36743871 96.65408599 -0.37635398 C100.34772171 -0.38156466 104.04103094 -0.39379429 107.73456192 -0.42292023 C111.85980915 -0.4551861 115.98449026 -0.45595786 120.10986328 -0.45410156 C121.94297813 -0.47567322 121.94297813 -0.47567322 123.81312561 -0.49768066 C130.15011379 -0.46677143 134.23272791 -0.3717575 139 4 C142.35850137 8.69222846 141.3281429 14.92181302 141.3125 20.4375 C141.32861328 21.56994141 141.34472656 22.70238281 141.36132812 23.86914062 C141.36197266 24.96291016 141.36261719 26.05667969 141.36328125 27.18359375 C141.36626221 28.17931396 141.36924316 29.17503418 141.37231445 30.20092773 C140.92681346 33.55021883 140.09508244 35.35278289 138 38 C134.41346834 39.77908837 131.51791083 40.24831778 127.53935242 40.24050903 C125.91352486 40.24463303 125.91352486 40.24463303 124.25485229 40.24884033 C123.07593414 40.24164978 121.89701599 40.23445923 120.68237305 40.22705078 C118.8085923 40.22748886 118.8085923 40.22748886 116.8969574 40.22793579 C113.47991183 40.22678268 110.06310908 40.21676465 106.64610648 40.20278788 C103.07200574 40.19027012 99.49790163 40.18910919 95.92378235 40.18673706 C89.15946801 40.18052536 82.39521846 40.16411875 75.63093263 40.14403808 C67.92843306 40.12166942 60.22593036 40.11068322 52.52340639 40.10064721 C36.68223343 40.07975224 20.84112507 40.04458231 5 40 C5.33 39.01 5.66 38.02 6 37 C6.2953107 32.60453337 6.35568718 28.20761907 6.4050293 23.80371094 C6.42662668 22.35457554 6.46075181 20.90557122 6.50756836 19.45703125 C6.57469112 17.35878819 6.60203609 15.2632285 6.62109375 13.1640625 C6.65867798 11.28388428 6.65867798 11.28388428 6.69702148 9.36572266 C5.73012496 4.69684856 3.80956162 3.72062188 0 1 C0 0.67 0 0.34 0 0 Z " fill="#2E3361" transform="translate(287,115)"/>
<path d="M0 0 C0.66 0.66 1.32 1.32 2 2 C5.29532883 2.10214631 8.54323727 1.92971475 11.8359375 1.77734375 C15.31410735 2.02210385 16.66618041 2.43049912 19 5 C19 6.32 19 7.64 19 9 C20.051875 9.12375 21.10375 9.2475 22.1875 9.375 C28.18566775 10.35830619 28.18566775 10.35830619 31 12 C31.433125 12.94875 31.86625 13.8975 32.3125 14.875 C34.61908399 19.14645183 37.62361329 20.23281297 42 22 C42.28571429 30.57142857 42.28571429 30.57142857 40 34 C41.65 34 43.3 34 45 34 C45 34.33 45 34.66 45 35 C42.03 35 39.06 35 36 35 C36 37.31 36 39.62 36 42 C31.05 42 26.1 42 21 42 C21 39.69 21 37.38 21 35 C18.69 35 16.38 35 14 35 C14.495 38.465 14.495 38.465 15 42 C12.03 42 9.06 42 6 42 C6 46.95 6 51.9 6 57 C-6.87 57 -19.74 57 -33 57 C-33 42.375 -33 42.375 -32.5 36.1875 C-32.4071875 35.00542969 -32.314375 33.82335937 -32.21875 32.60546875 C-32.1465625 31.74566406 -32.074375 30.88585937 -32 30 C-32.66 30 -33.32 30 -34 30 C-34 28.68 -34 27.36 -34 26 C-31.36 26 -28.72 26 -26 26 C-26 31.28 -26 36.56 -26 42 C-23.69 42 -21.38 42 -19 42 C-19 39.36 -19 36.72 -19 34 C-19.33 36.31 -19.66 38.62 -20 41 C-21.32 41 -22.64 41 -24 41 C-24 35.72 -24 30.44 -24 25 C-26.97 25 -29.94 25 -33 25 C-35.29005707 20.41988586 -36.67125989 16.51626566 -35.31640625 11.4375 C-32.08505769 5.45423146 -22.53452396 3.73910522 -16.4375 1.6875 C-11.00885933 0.0874114 -5.64913192 -0.98544695 0 0 Z " fill="#6F5951" transform="translate(215,59)"/>
<path d="M0 0 C0 0.99 0 1.98 0 3 C16.17 3 32.34 3 49 3 C49 15.21 49 27.42 49 40 C41.9704165 40.06889247 34.9420057 40.12862175 27.91235352 40.16479492 C25.5213626 40.17987543 23.13039932 40.20034277 20.73950195 40.22631836 C17.30152565 40.26273306 13.86391531 40.27973399 10.42578125 40.29296875 C9.35789871 40.30845261 8.29001617 40.32393646 7.18977356 40.33988953 C-2.3121167 40.34204117 -2.3121167 40.34204117 -6 37 C-9.58842161 32.02301524 -8.36911505 24.90331037 -8.375 19.0625 C-8.39949219 17.78697266 -8.42398438 16.51144531 -8.44921875 15.19726562 C-8.45308594 13.96814453 -8.45695313 12.73902344 -8.4609375 11.47265625 C-8.46915527 10.35125244 -8.47737305 9.22984863 -8.48583984 8.07446289 C-7.60844457 2.52218212 -5.67375388 0 0 0 Z " fill="#F2F1F4" transform="translate(179,116)"/>
<path d="M0 0 C2.9720237 0.33022486 4.72809947 0.79564006 7.13867188 2.60742188 C9.65789116 5.84566282 9.5165717 7.95697255 9.53125 12.03125 C9.5350769 12.70418091 9.53890381 13.37711182 9.54284668 14.07043457 C9.5455613 15.4891917 9.53823134 16.90799927 9.52148438 18.32666016 C9.50006275 20.49365203 9.52129538 22.65732951 9.546875 24.82421875 C9.54423164 26.20573646 9.53910647 27.5872521 9.53125 28.96875 C9.52673828 30.22107422 9.52222656 31.47339844 9.51757812 32.76367188 C8.89655991 36.64679335 8.03242368 37.58646793 5 40 C2.54486084 40.48101807 2.54486084 40.48101807 -0.22753906 40.45410156 C-1.26831604 40.45379944 -2.30909302 40.45349731 -3.38140869 40.45318604 C-5.05659576 40.42221832 -5.05659576 40.42221832 -6.765625 40.390625 C-7.91415955 40.38496521 -9.06269409 40.37930542 -10.24603271 40.37347412 C-13.91444574 40.35108331 -17.58188217 40.30087942 -21.25 40.25 C-23.73696506 40.22993861 -26.22394543 40.21168722 -28.7109375 40.1953125 C-34.80797062 40.15461134 -40.90289219 40.07631985 -47 40 C-47 28.45 -47 16.9 -47 5 C-46.01 5 -45.02 5 -44 5 C-43.57074219 5.81855469 -43.14148438 6.63710937 -42.69921875 7.48046875 C-42.13847656 8.31191406 -41.57773438 9.14335938 -41 10 C-38.03618482 10.60481772 -38.03618482 10.60481772 -34.8125 10.3125 C-33.18248047 10.24482422 -33.18248047 10.24482422 -31.51953125 10.17578125 C-30.68808594 10.11777344 -29.85664063 10.05976562 -29 10 C-28.01 8.02 -27.02 6.04 -26 4 C-17.42 4 -8.84 4 0 4 C0 2.68 0 1.36 0 0 Z " fill="#F5F3F6" transform="translate(284,115)"/>
<path d="M0 0 C2.64230181 5.5488338 4.24520828 11.22493845 5.8828125 17.140625 C7.39798161 22.50029423 9.23372817 27.75094565 11.046875 33.015625 C12 36 12 36 12 38 C10.68 38 9.36 38 8 38 C8 34.7 8 31.4 8 28 C-4.375 28.495 -4.375 28.495 -17 29 C-17.33 31.97 -17.66 34.94 -18 38 C-19.32 38 -20.64 38 -22 38 C-22 32.72 -22 27.44 -22 22 C-23.65 22 -25.3 22 -27 22 C-28.51870725 18.06165746 -29.9405414 14.36754789 -30.125 10.125 C-27.95867008 6.03304349 -22.02380802 4.96121988 -17.7734375 3.61328125 C-16.30864116 3.1751502 -14.84246958 2.74159225 -13.375 2.3125 C-12.63765625 2.08755859 -11.9003125 1.86261719 -11.140625 1.63085938 C-7.32684387 0.50654576 -4.02178909 -0.29408339 0 0 Z " fill="#FAF8F7" transform="translate(213,62)"/>
<path d="M0 0 C1.98 0 3.96 0 6 0 C6.04898438 0.63808594 6.09796875 1.27617188 6.1484375 1.93359375 C6.22320312 2.75988281 6.29796875 3.58617188 6.375 4.4375 C6.47941406 5.67306641 6.47941406 5.67306641 6.5859375 6.93359375 C6.79089844 7.95646484 6.79089844 7.95646484 7 9 C7.66 9.33 8.32 9.66 9 10 C9 14.29 9 18.58 9 23 C-10.47 23 -29.94 23 -50 23 C-50 18.71 -50 14.42 -50 10 C-47.03 10 -44.06 10 -41 10 C-41.66 7.69 -42.32 5.38 -43 3 C-41.35 3 -39.7 3 -38 3 C-37.67 4.98 -37.34 6.96 -37 9 C-31.06 9.33 -25.12 9.66 -19 10 C-19.66 7.69 -20.32 5.38 -21 3 C-19.35 3 -17.7 3 -16 3 C-16 5.31 -16 7.62 -16 10 C-12.37 10 -8.74 10 -5 10 C-4.67 9.01 -4.34 8.02 -4 7 C-3.01 7.66 -2.02 8.32 -1 9 C0.65549531 9.38499891 2.3222433 9.72793135 4 10 C4 7.03 4 4.06 4 1 C2.68 0.67 1.36 0.34 0 0 Z " fill="#EFC458" transform="translate(273,93)"/>
<path d="M0 0 C0.33 0 0.66 0 1 0 C1.33 5.61 1.66 11.22 2 17 C4.50533325 16.99214478 4.50533325 16.99214478 7.0612793 16.98413086 C13.25788843 16.96603103 19.45449522 16.9545497 25.65112305 16.94506836 C28.33310101 16.94060448 31.01505529 16.93364641 33.69702148 16.92456055 C37.55192746 16.91243147 41.40679718 16.90675713 45.26171875 16.90234375 C47.06040657 16.89460182 47.06040657 16.89460182 48.89543152 16.88670349 C50.01621597 16.88662796 51.13700043 16.88655243 52.29174805 16.88647461 C53.27547897 16.884254 54.2592099 16.88203339 55.27275085 16.87974548 C57.9487352 16.99773955 60.39334338 17.40051667 63 18 C62.505 19.485 62.505 19.485 62 21 C62 20.34 62 19.68 62 19 C61.01 19 60.02 19 59 19 C59 30.55 59 42.1 59 54 C66.35126452 53.92610514 73.70128861 53.84336663 81.05200195 53.73754883 C83.55356465 53.70425529 86.05520327 53.67623732 88.55688477 53.65356445 C92.14893002 53.6201004 95.74027666 53.56778757 99.33203125 53.51171875 C101.01496025 53.50213387 101.01496025 53.50213387 102.73188782 53.49235535 C104.29316658 53.46266411 104.29316658 53.46266411 105.88598633 53.43237305 C107.2616552 53.41571846 107.2616552 53.41571846 108.66511536 53.39872742 C111.45243044 52.92273861 112.35439759 52.27116758 114 50 C114.508149 46.80522025 114.508149 46.80522025 114.51171875 43.14453125 C114.53864555 42.15207649 114.53864555 42.15207649 114.56611633 41.13957214 C114.62020898 39.03061253 114.65410931 36.92187901 114.6875 34.8125 C114.72067427 33.38082792 114.75516405 31.94918567 114.79101562 30.51757812 C114.87593257 27.0119361 114.94274921 23.50621527 115 20 C115.33 20 115.66 20 116 20 C116.02469081 24.3782512 116.04285557 28.75646567 116.05493164 33.13476562 C116.05996514 34.62468166 116.06679242 36.11459274 116.07543945 37.60449219 C116.08754805 39.74415304 116.09323807 41.88374868 116.09765625 44.0234375 C116.10289307 45.31169434 116.10812988 46.59995117 116.11352539 47.92724609 C116 51 116 51 115 53 C131.47238778 53.02336326 147.94477018 53.04099603 164.41717052 53.05181217 C172.06563559 53.05696784 179.71409037 53.06399667 187.36254883 53.07543945 C194.0291567 53.08540855 200.69575711 53.09185874 207.36237222 53.09408849 C210.89208004 53.09539181 214.42176653 53.09845376 217.95146751 53.10573006 C221.89237238 53.11378809 225.83325639 53.1139897 229.77416992 53.11352539 C230.94373734 53.11712067 232.11330475 53.12071594 233.3183136 53.12442017 C234.39378448 53.1230455 235.46925537 53.12167084 236.57731628 53.12025452 C237.50924899 53.12117631 238.4411817 53.1220981 239.40135479 53.12304783 C242.0590746 52.99720277 244.43686463 52.72032403 247 52 C250.1133075 46.70285329 249.3294926 40.44740989 249.3125 34.5 C249.32861328 33.37207031 249.34472656 32.24414062 249.36132812 31.08203125 C249.36229492 29.44814453 249.36229492 29.44814453 249.36328125 27.78125 C249.36626221 26.79189453 249.36924316 25.80253906 249.37231445 24.78320312 C248.80411595 20.53568648 247.08274517 17.89713171 243.8125 15.1875 C243.214375 14.795625 242.61625 14.40375 242 14 C245.44730584 13.60602219 246.75613114 13.8355303 249.6875 15.8125 C252.33047746 18.31261382 253.88452097 19.95379881 254.29052734 23.63208008 C254.33964899 27.02596317 254.37131659 30.41823365 254.375 33.8125 C254.39949219 34.98876953 254.42398438 36.16503906 254.44921875 37.37695312 C254.48207129 47.06297608 254.48207129 47.06297608 252.2890625 50.69921875 C248.36932482 54.63902335 244.73904783 55.22645333 239.25083607 55.25816262 C238.50666536 55.25233693 237.76249465 55.24651125 236.99577332 55.24050903 C235.79492606 55.24307231 235.79492606 55.24307231 234.56981927 55.24568737 C231.89044892 55.24897851 229.21132966 55.23798476 226.53198242 55.22705078 C224.61008714 55.22648659 222.68819142 55.22680339 220.76629639 55.22793579 C215.54977896 55.22850998 210.33335337 55.21674489 205.11685729 55.20278788 C199.66493046 55.1902916 194.21300156 55.18911089 188.76106262 55.18673706 C178.43745435 55.18051905 168.11388839 55.16410387 157.79029876 55.14403808 C146.03708707 55.12168908 134.28387337 55.11068816 122.53064573 55.10064721 C98.35373494 55.07973794 74.17688218 55.04305767 50 55 C50 42.79 50 30.58 50 18 C33.83 18 17.66 18 1 18 C1 17.01 1 16.02 1 15 C0.34 14.67 -0.32 14.34 -1 14 C-0.67 9.38 -0.34 4.76 0 0 Z " fill="#A38988" transform="translate(178,101)"/>
<path d="M0 0 C1.32 0 2.64 0 4 0 C4.33 4.95 4.66 9.9 5 15 C7.083125 15.04125 9.16625 15.0825 11.3125 15.125 C12.48425781 15.14820312 13.65601563 15.17140625 14.86328125 15.1953125 C18.16393661 15.25320618 18.16393661 15.25320618 21 13 C21 13.99 21 14.98 21 16 C22.98 16 24.96 16 27 16 C27 14.68 27 13.36 27 12 C27.66 12 28.32 12 29 12 C29 13.32 29 14.64 29 16 C30.32 16 31.64 16 33 16 C33 13.36 33 10.72 33 8 C30.36 8 27.72 8 25 8 C25 7.34 25 6.68 25 6 C28.63 6 32.26 6 36 6 C36 9.3 36 12.6 36 16 C36.66 16 37.32 16 38 16 C38 20.29 38 24.58 38 29 C25.13 29 12.26 29 -1 29 C-1 16 -1 16 0 15 C0.07313567 12.46950598 0.09247527 9.96695163 0.0625 7.4375 C0.05798828 6.72658203 0.05347656 6.01566406 0.04882812 5.28320312 C0.03700864 3.52209987 0.01907263 1.76103964 0 0 Z " fill="#EEC355" transform="translate(183,87)"/>
<path d="M0 0 C0.33 0 0.66 0 1 0 C0.896875 1.258125 0.79375 2.51625 0.6875 3.8125 C0.60418432 5.99141323 0.60418432 5.99141323 1 8 C3.3549963 10.08216876 3.3549963 10.08216876 6 11 C6.185625 9.0509375 6.185625 9.0509375 6.375 7.0625 C6.5859375 4.84765625 6.5859375 4.84765625 7 3 C7.66 2.67 8.32 2.34 9 2 C9.495 5.465 9.495 5.465 10 9 C9.34 9 8.68 9 8 9 C8.495 9.99 8.495 9.99 9 11 C9.99 11 10.98 11 12 11 C11.34 11.66 10.68 12.32 10 13 C9.79127281 15.78302919 9.74359102 17.48718205 11 20 C7.37 20 3.74 20 0 20 C0 17.69 0 15.38 0 13 C-1.32 13.33 -2.64 13.66 -4 14 C-3.505 14.495 -3.505 14.495 -3 15 C-2.95936168 16.66617115 -2.957279 18.33388095 -3 20 C-5.97922593 20.02683987 -8.95821295 20.04676037 -11.9375 20.0625 C-13.21270508 20.07506836 -13.21270508 20.07506836 -14.51367188 20.08789062 C-15.32255859 20.09111328 -16.13144531 20.09433594 -16.96484375 20.09765625 C-17.7137085 20.10289307 -18.46257324 20.10812988 -19.23413086 20.11352539 C-21 20 -21 20 -22 19 C-22.04080783 17.00041636 -22.04254356 14.99954746 -22 13 C-23.32 13.33 -24.64 13.66 -26 14 C-25.505 14.495 -25.505 14.495 -25 15 C-24.95936168 16.66617115 -24.957279 18.33388095 -25 20 C-27.97 20 -30.94 20 -34 20 C-34 24.29 -34 28.58 -34 33 C-14.53 33 4.94 33 25 33 C25 28.71 25 24.42 25 20 C23.515 19.505 23.515 19.505 22 19 C22 16.03 22 13.06 22 10 C19.03 10 16.06 10 13 10 C13 9.34 13 8.68 13 8 C13.99 7.34 14.98 6.68 16 6 C16.66 5.01 17.32 4.02 18 3 C18 4.32 18 5.64 18 7 C19.94074861 6.72382467 19.94074861 6.72382467 22 6 C22.66 5.01 23.32 4.02 24 3 C24 8.28 24 13.56 24 19 C24.66 19 25.32 19 26 19 C26 23.95 26 28.9 26 34 C-7.66 34 -41.32 34 -76 34 C-76 29.05 -76 24.1 -76 19 C-75.34 19.33 -74.68 19.66 -74 20 C-74.33 24.29 -74.66 28.58 -75 33 C-62.13 33 -49.26 33 -36 33 C-36 28.05 -36 23.1 -36 18 C-33.03 18 -30.06 18 -27 18 C-27.495 14.535 -27.495 14.535 -28 11 C-25.69 11 -23.38 11 -21 11 C-21 13.31 -21 15.62 -21 18 C-16.05 18 -11.1 18 -6 18 C-6 15.69 -6 13.38 -6 11 C-4.68 10.67 -3.36 10.34 -2 10 C-1.34 6.7 -0.68 3.4 0 0 Z " fill="#6C460F" transform="translate(257,83)"/>
<path d="M0 0 C4.95 0.99 4.95 0.99 10 2 C10.061875 2.94875 10.12375 3.8975 10.1875 4.875 C10.455625 5.90625 10.72375 6.9375 11 8 C13.26601865 9.29042763 13.26601865 9.29042763 16 10 C17.6829392 10.97236487 19.35443434 11.96564444 21 13 C20.125 19.75 20.125 19.75 19 22 C18.34 22 17.68 22 17 22 C17 24.31 17 26.62 17 29 C13.04 29 9.08 29 5 29 C5 26.69 5 24.38 5 22 C3.35 22 1.7 22 0 22 C0 14.74 0 7.48 0 0 Z " fill="#FCFCFB" transform="translate(233,71)"/>
<path d="M0 0 C3.44730584 -0.39397781 4.75613114 -0.1644697 7.6875 1.8125 C10.33047746 4.31261382 11.88452097 5.95379881 12.29052734 9.63208008 C12.33964899 13.02596317 12.37131659 16.41823365 12.375 19.8125 C12.39949219 20.98876953 12.42398438 22.16503906 12.44921875 23.37695312 C12.48207129 33.06297608 12.48207129 33.06297608 10.2890625 36.69921875 C7.22478202 39.77918668 4.58794318 40.85733583 0.26079845 41.24609566 C-1.23665425 41.24333028 -1.23665425 41.24333028 -2.76435852 41.24050903 C-4.49115593 41.24463303 -4.49115593 41.24463303 -6.25283813 41.24884033 C-7.50656219 41.24164978 -8.76028625 41.23445923 -10.05200195 41.22705078 C-11.39262381 41.22648631 -12.73324629 41.22680392 -14.0738678 41.22793579 C-17.70574169 41.22850892 -21.33748311 41.21676116 -24.96932626 41.20278788 C-28.76764518 41.19027381 -32.56596723 41.18910948 -36.36430359 41.18673706 C-43.55360768 41.18052428 -50.74285085 41.1641162 -57.93212813 41.14403808 C-66.11829499 41.1216728 -74.30446478 41.11068407 -82.49065459 41.10064721 C-99.32713871 41.07974979 -116.16356157 41.04457774 -133 41 C-132.18860062 40.24350662 -131.37720123 39.48701324 -130.54121399 38.70759583 C-127.32910815 35.2851826 -127.35205956 33.57799912 -127.29296875 28.94921875 C-127.27784744 28.29041214 -127.26272614 27.63160553 -127.24714661 26.95283508 C-127.20441434 24.864038 -127.19544735 22.7766898 -127.1875 20.6875 C-127.16434386 19.26493583 -127.13897617 17.84240583 -127.11132812 16.41992188 C-127.04862384 12.94664196 -127.01617216 9.47384387 -127 6 C-126.67 6 -126.34 6 -126 6 C-125.97530919 10.3782512 -125.95714443 14.75646567 -125.94506836 19.13476562 C-125.94003486 20.62468166 -125.93320758 22.11459274 -125.92456055 23.60449219 C-125.91245195 25.74415304 -125.90676193 27.88374868 -125.90234375 30.0234375 C-125.89710693 31.31169434 -125.89187012 32.59995117 -125.88647461 33.92724609 C-126 37 -126 37 -127 39 C-110.52761222 39.02336326 -94.05522982 39.04099603 -77.58282948 39.05181217 C-69.93436441 39.05696784 -62.28590963 39.06399667 -54.63745117 39.07543945 C-47.9708433 39.08540855 -41.30424289 39.09185874 -34.63762778 39.09408849 C-31.10791996 39.09539181 -27.57823347 39.09845376 -24.04853249 39.10573006 C-20.10762762 39.11378809 -16.16674361 39.1139897 -12.22583008 39.11352539 C-11.05626266 39.11712067 -9.88669525 39.12071594 -8.6816864 39.12442017 C-7.60621552 39.1230455 -6.53074463 39.12167084 -5.42268372 39.12025452 C-4.49075101 39.12117631 -3.5588183 39.1220981 -2.59864521 39.12304783 C0.0590746 38.99720277 2.43686463 38.72032403 5 38 C8.1133075 32.70285329 7.3294926 26.44740989 7.3125 20.5 C7.32861328 19.37207031 7.34472656 18.24414062 7.36132812 17.08203125 C7.36229492 15.44814453 7.36229492 15.44814453 7.36328125 13.78125 C7.36626221 12.79189453 7.36924316 11.80253906 7.37231445 10.78320312 C6.80411595 6.53568648 5.08274517 3.89713171 1.8125 1.1875 C1.214375 0.795625 0.61625 0.40375 0 0 Z " fill="#4C506F" transform="translate(420,115)"/>
<path d="M0 0 C0.67364661 2.08108685 1.33866798 4.1649671 2 6.25 C2.37125 7.41015625 2.7425 8.5703125 3.125 9.765625 C4 13 4 13 4 17 C7.63 16.67 11.26 16.34 15 16 C16.485 21.94 16.485 21.94 18 28 C16.68 28 15.36 28 14 28 C14 24.7 14 21.4 14 18 C6.08 18.33 -1.84 18.66 -10 19 C-11.40669734 13.37321063 -12.39623622 8.63512859 -13 3 C-8.36224637 1.11345615 -5.04994191 -0.21225675 0 0 Z " fill="#E4E4E7" transform="translate(207,72)"/>
<path d="M0 0 C3.96 0 7.92 0 12 0 C10.515 1.485 10.515 1.485 9 3 C8.28552357 5.10332891 8.28552357 5.10332891 8 7 C8.66 7 9.32 7 10 7 C10 7.66 10 8.32 10 9 C10.66 9 11.32 9 12 9 C12 8.34 12 7.68 12 7 C12.99 7 13.98 7 15 7 C15.33 13.93 15.66 20.86 16 28 C14.35 28 12.7 28 11 28 C11 29.98 11 31.96 11 34 C8.76678485 31.76678485 8.4282588 30.59090287 7.59765625 27.59765625 C7.34838379 26.71166748 7.09911133 25.82567871 6.84228516 24.9128418 C6.58495605 23.972229 6.32762695 23.03161621 6.0625 22.0625 C5.66490479 20.63901245 5.66490479 20.63901245 5.25927734 19.18676758 C4.49932772 16.45968344 3.74819974 13.73032776 3 11 C2.65066406 9.73414062 2.30132812 8.46828125 1.94140625 7.1640625 C1.28697009 4.7780321 0.64193483 2.38942408 0 0 Z " fill="#F9F9F8" transform="translate(216,65)"/>
<path d="M0 0 C0.33 0.66 0.66 1.32 1 2 C3.97 2 6.94 2 10 2 C10 7.28 10 12.56 10 18 C11.32 18 12.64 18 14 18 C13.95875 16.88625 13.9175 15.7725 13.875 14.625 C14 11 14 11 16 9 C15.67 12.3 15.34 15.6 15 19 C12.69 19 10.38 19 8 19 C8 13.72 8 8.44 8 3 C5.36 3 2.72 3 0 3 C0 4.32 0 5.64 0 7 C0.66 7 1.32 7 2 7 C2 11.29 2 15.58 2 20 C1.34 20 0.68 20 0 20 C0 24.95 0 29.9 0 35 C20.46 35 40.92 35 62 35 C62.99 37.475 62.99 37.475 64 40 C64.5775 39.814375 65.155 39.62875 65.75 39.4375 C68 39 68 39 70.0625 39.625 C71.0215625 39.810625 71.0215625 39.810625 72 40 C73.77190909 38.64555699 73.77190909 38.64555699 75 37 C74.67 38.32 74.34 39.64 74 41 C69.20699867 42.39151652 64.84864218 41.68662689 60 41 C60 39.68 60 38.36 60 37 C29.805 36.505 29.805 36.505 -1 36 C-2.2062252 32.38132441 -2.10816918 29.07493749 -2.0625 25.3125 C-2.05798828 24.61060547 -2.05347656 23.90871094 -2.04882812 23.18554688 C-2.03706927 21.45699462 -2.01913454 19.72848635 -2 18 C-1.34 18 -0.68 18 0 18 C-0.66 12.39 -1.32 6.78 -2 1 C-1.34 0.67 -0.68 0.34 0 0 Z " fill="#CC5E2E" transform="translate(181,82)"/>
<path d="M0 0 C0.495 1.98 0.495 1.98 1 4 C2.94074861 3.72382467 2.94074861 3.72382467 5 3 C5.66 2.01 6.32 1.02 7 0 C7 5.28 7 10.56 7 16 C7.66 16 8.32 16 9 16 C9 20.95 9 25.9 9 31 C-24.66 31 -58.32 31 -93 31 C-93 26.05 -93 21.1 -93 16 C-92.34 16.33 -91.68 16.66 -91 17 C-91.33 21.29 -91.66 25.58 -92 30 C-79.13 30 -66.26 30 -53 30 C-53 25.38 -53 20.76 -53 16 C-52.34 16 -51.68 16 -51 16 C-51 20.62 -51 25.24 -51 30 C-31.53 30 -12.06 30 8 30 C8 25.71 8 21.42 8 17 C6.515 16.505 6.515 16.505 5 16 C5 13.03 5 10.06 5 7 C2.03 7 -0.94 7 -4 7 C-4 6.34 -4 5.68 -4 5 C-3.01 4.34 -2.02 3.68 -1 3 C-0.67 2.01 -0.34 1.02 0 0 Z " fill="#482C16" transform="translate(274,86)"/>
<path d="M0 0 C3.44730584 -0.39397781 4.75613114 -0.1644697 7.6875 1.8125 C10.33047746 4.31261382 11.88452097 5.95379881 12.29052734 9.63208008 C12.33964899 13.02596317 12.37131659 16.41823365 12.375 19.8125 C12.39949219 20.98876953 12.42398437 22.16503906 12.44921875 23.37695312 C12.48604515 34.23460405 12.48604515 34.23460405 8 39 C5.23107944 40.59212932 3.84214899 41.1365647 0.6875 40.625 C0.130625 40.41875 -0.42625 40.2125 -1 40 C0.423125 39.6596875 0.423125 39.6596875 1.875 39.3125 C5.12171189 38.33698564 5.12171189 38.33698564 6.17651367 35.77929688 C7.66054851 30.77062428 7.32731879 25.68657641 7.3125 20.5 C7.32861328 19.37207031 7.34472656 18.24414062 7.36132812 17.08203125 C7.36197266 15.99277344 7.36261719 14.90351563 7.36328125 13.78125 C7.36626221 12.79189453 7.36924316 11.80253906 7.37231445 10.78320312 C6.80411595 6.53568648 5.08274517 3.89713171 1.8125 1.1875 C1.214375 0.795625 0.61625 0.40375 0 0 Z " fill="#F1C5B2" transform="translate(420,115)"/>
<path d="M0 0 C0.8971875 0.309375 0.8971875 0.309375 1.8125 0.625 C0.99910156 1.3675 0.18570313 2.11 -0.65234375 2.875 C-4.51950879 7.53035093 -3.87902596 12.85021645 -3.75 18.625 C-3.76095703 19.69234375 -3.77191406 20.7596875 -3.78320312 21.859375 C-3.725645 28.02960548 -3.42147294 31.99626907 0.8125 36.625 C3.41687233 38.03690564 3.41687233 38.03690564 5.8125 38.625 C2.75758944 39.96916065 1.51876765 39.53224242 -1.75 38.5 C-5.51367496 36.44708639 -6.38232299 35.40625039 -8.1875 31.625 C-8.57568359 28.84179688 -8.57568359 28.84179688 -8.5859375 25.84375 C-8.58980469 24.75449219 -8.59367187 23.66523438 -8.59765625 22.54296875 C-8.58605469 21.41503906 -8.57445313 20.28710938 -8.5625 19.125 C-8.57410156 17.99707031 -8.58570312 16.86914062 -8.59765625 15.70703125 C-8.59378906 14.61777344 -8.58992188 13.52851563 -8.5859375 12.40625 C-8.58255371 11.41689453 -8.57916992 10.42753906 -8.57568359 9.40820312 C-8.11913418 6.13482994 -7.13550615 4.27726329 -5.1875 1.625 C-2.1875 -0.375 -2.1875 -0.375 0 0 Z " fill="#B8927C" transform="translate(40.1875,116.375)"/>
<path d="M0 0 C0.80566406 0.04833984 1.61132812 0.09667969 2.44140625 0.14648438 C3.28316406 0.20255859 4.12492188 0.25863281 4.9921875 0.31640625 C6.26642578 0.3947168 6.26642578 0.3947168 7.56640625 0.47460938 C9.66697874 0.60442003 11.76712941 0.74102365 13.8671875 0.87890625 C13.8671875 1.20890625 13.8671875 1.53890625 13.8671875 1.87890625 C10.2371875 1.87890625 6.6071875 1.87890625 2.8671875 1.87890625 C2.8671875 2.53890625 2.8671875 3.19890625 2.8671875 3.87890625 C5.5071875 3.87890625 8.1471875 3.87890625 10.8671875 3.87890625 C10.8671875 6.51890625 10.8671875 9.15890625 10.8671875 11.87890625 C9.5471875 11.87890625 8.2271875 11.87890625 6.8671875 11.87890625 C6.8671875 10.55890625 6.8671875 9.23890625 6.8671875 7.87890625 C6.2071875 7.87890625 5.5471875 7.87890625 4.8671875 7.87890625 C4.8671875 9.19890625 4.8671875 10.51890625 4.8671875 11.87890625 C2.8871875 11.87890625 0.9071875 11.87890625 -1.1328125 11.87890625 C-1.4628125 11.21890625 -1.7928125 10.55890625 -2.1328125 9.87890625 C-3.1228125 10.37390625 -3.1228125 10.37390625 -4.1328125 10.87890625 C-4.1328125 10.21890625 -4.1328125 9.55890625 -4.1328125 8.87890625 C-5.1228125 8.54890625 -6.1128125 8.21890625 -7.1328125 7.87890625 C-6.87719927 5.53578495 -6.54010478 3.20047222 -6.1328125 0.87890625 C-3.77622853 -0.29938574 -2.60708014 -0.16523747 0 0 Z " fill="#B89539" transform="translate(205.1328125,91.12109375)"/>
<path d="M0 0 C13.2 0 26.4 0 40 0 C40.495 0.99 40.495 0.99 41 2 C32.42 2 23.84 2 15 2 C14.67 3.65 14.34 5.3 14 7 C11.29921247 9.70078753 9.75964828 9.29894358 6 9.3125 C4.9275 9.32925781 3.855 9.34601563 2.75 9.36328125 C1.8425 9.24339844 0.935 9.12351562 0 9 C-0.66 8.01 -1.32 7.02 -2 6 C2.29 6 6.58 6 11 6 C10 6 10 6 7.6875 5.5 C4.80018263 4.87806139 4.80018263 4.87806139 1 5 C0.67 3.35 0.34 1.7 0 0 Z " fill="#BC6640" transform="translate(243,117)"/>
<path d="M0 0 C2.97 0.495 2.97 0.495 6 1 C5.67 2.32 5.34 3.64 5 5 C4.34 5 3.68 5 3 5 C3.99 6.485 3.99 6.485 5 8 C5 8.99 5 9.98 5 11 C6.32 10.34 7.64 9.68 9 9 C8.67 14.94 8.34 20.88 8 27 C7.34 27 6.68 27 6 27 C5.67 27.66 5.34 28.32 5 29 C5 26.69 5 24.38 5 22 C3.35 22 1.7 22 0 22 C0 14.74 0 7.48 0 0 Z " fill="#FBF5F2" transform="translate(233,71)"/>
<path d="M0 0 C2.64 0 5.28 0 8 0 C8 5.28 8 10.56 8 16 C10.31 16 12.62 16 15 16 C15.04898438 15.28972656 15.09796875 14.57945313 15.1484375 13.84765625 C15.22320312 12.92855469 15.29796875 12.00945312 15.375 11.0625 C15.44460937 10.14597656 15.51421875 9.22945312 15.5859375 8.28515625 C15.79089844 7.15400391 15.79089844 7.15400391 16 6 C18.50100574 4.74949713 20.00343052 4.97006551 22.7890625 5.12109375 C24.20058594 5.19360352 24.20058594 5.19360352 25.640625 5.26757812 C26.62546875 5.32365234 27.6103125 5.37972656 28.625 5.4375 C29.61757812 5.48970703 30.61015625 5.54191406 31.6328125 5.59570312 C34.08880468 5.72558733 36.54444112 5.86216638 39 6 C39 9.63 39 13.26 39 17 C38.67 17 38.34 17 38 17 C38 13.7 38 10.4 38 7 C31.4 7 24.8 7 18 7 C18 9.31 18 11.62 18 14 C18.66 14.33 19.32 14.66 20 15 C20 15.99 20 16.98 20 18 C17.85423363 18.02685938 15.70837355 18.04633088 13.5625 18.0625 C12.36753906 18.07410156 11.17257813 18.08570312 9.94140625 18.09765625 C7 18 7 18 6 17 C5.92686433 14.46950598 5.90752473 11.96695163 5.9375 9.4375 C5.94201172 8.72658203 5.94652344 8.01566406 5.95117188 7.28320312 C5.96299136 5.52209987 5.98092737 3.76103964 6 2 C5.01 2.33 4.02 2.66 3 3 C3 7.62 3 12.24 3 17 C2.67 17 2.34 17 2 17 C2 12.71 2 8.42 2 4 C1.34 4 0.68 4 0 4 C0 2.68 0 1.36 0 0 Z " fill="#71421C" transform="translate(181,85)"/>
<path d="M0 0 C4.62 0 9.24 0 14 0 C14 3.3 14 6.6 14 10 C15.32 10 16.64 10 18 10 C17.67 8.02 17.34 6.04 17 4 C17.99 5.485 17.99 5.485 19 7 C19.33 5.68 19.66 4.36 20 3 C24.01804691 2.15901344 27.01803543 1.94595055 31 3 C31.144375 3.78375 31.28875 4.5675 31.4375 5.375 C31.87798925 7.96421018 31.87798925 7.96421018 33 10 C36.3 10 39.6 10 43 10 C43 7.69 43 5.38 43 3 C44.65 2.34 46.3 1.68 48 1 C48 1.66 48 2.32 48 3 C49.65 3 51.3 3 53 3 C53 3.33 53 3.66 53 4 C50.03 4 47.06 4 44 4 C44 6.31 44 8.62 44 11 C39.05 11 34.1 11 29 11 C29 8.69 29 6.38 29 4 C26.69 4 24.38 4 22 4 C22.33 6.31 22.66 8.62 23 11 C20.03 11 17.06 11 14 11 C14 11.66 14 12.32 14 13 C13.34 12.67 12.68 12.34 12 12 C12.33 8.37 12.66 4.74 13 1 C8.71 1 4.42 1 0 1 C0 0.67 0 0.34 0 0 Z " fill="#C35C2D" transform="translate(207,90)"/>
<path d="M0 0 C3.375 -0.125 3.375 -0.125 7 0 C7.66 0.66 8.32 1.32 9 2 C12.29532883 2.10214631 15.54323727 1.92971475 18.8359375 1.77734375 C22.31410735 2.02210385 23.66618041 2.43049912 26 5 C26 6.32 26 7.64 26 9 C27.051875 9.12375 28.10375 9.2475 29.1875 9.375 C35.18566775 10.35830619 35.18566775 10.35830619 38 12 C38.433125 12.94875 38.86625 13.8975 39.3125 14.875 C41.61908399 19.14645183 44.62361329 20.23281297 49 22 C49.1953125 28.0546875 49.1953125 28.0546875 49 30 C48.34 30.66 47.68 31.32 47 32 C47.144375 30.948125 47.28875 29.89625 47.4375 28.8125 C47.39822443 25.11466003 47.39822443 25.11466003 45.546875 23.45703125 C42.74403643 21.44911539 40.28535271 20.09511757 37 19 C36.505 16.03 36.505 16.03 36 13 C34.86111328 12.76216797 34.86111328 12.76216797 33.69921875 12.51953125 C32.70535156 12.28621094 31.71148437 12.05289063 30.6875 11.8125 C29.70136719 11.59207031 28.71523437 11.37164062 27.69921875 11.14453125 C25 10 25 10 23.6171875 7.4296875 C22.81667969 6.22699219 22.81667969 6.22699219 22 5 C19.29560953 4.50856673 17.13941649 4.29971894 14.4375 4.3125 C7.22428571 4.22428571 7.22428571 4.22428571 5 2 C2.42938689 1.35232207 2.42938689 1.35232207 0 1 C0 0.67 0 0.34 0 0 Z " fill="#B55E3A" transform="translate(208,59)"/>
<path d="M0 0 C0.78375 0.185625 1.5675 0.37125 2.375 0.5625 C4.97089775 1.25962266 4.97089775 1.25962266 7 0 C7.17455021 3.24931927 7.28091753 6.49743448 7.375 9.75 C7.42527344 10.67039063 7.47554687 11.59078125 7.52734375 12.5390625 C7.58422023 15.15538069 7.56940161 17.44391882 7 20 C2.5147929 24 2.5147929 24 0 24 C0 21.69 0 19.38 0 17 C2.475 17.99 2.475 17.99 5 19 C4.67 17.68 4.34 16.36 4 15 C2.68 15.33 1.36 15.66 0 16 C0 14.02 0 12.04 0 10 C1.98 10 3.96 10 6 10 C5.67 8.35 5.34 6.7 5 5 C4.01 5 3.02 5 2 5 C2 5.66 2 6.32 2 7 C1.34 7 0.68 7 0 7 C0 4.69 0 2.38 0 0 Z " fill="#313254" transform="translate(229,124)"/>
<path d="M0 0 C20.46 0 40.92 0 62 0 C62.66 1.65 63.32 3.3 64 5 C64.86625 4.7215625 64.86625 4.7215625 65.75 4.4375 C68 4 68 4 70.0625 4.625 C71.0215625 4.810625 71.0215625 4.810625 72 5 C73.77190909 3.64555699 73.77190909 3.64555699 75 2 C74.67 3.32 74.34 4.64 74 6 C69.20699867 7.39151652 64.84864218 6.68662689 60 6 C60 4.68 60 3.36 60 2 C30.3 1.505 30.3 1.505 0 1 C0 0.67 0 0.34 0 0 Z " fill="#995332" transform="translate(181,117)"/>
<path d="M0 0 C4.49029126 -0.36407767 4.49029126 -0.36407767 6.75 1.25 C9.11849206 4.56588889 9.1218906 8.0099411 9.09765625 11.984375 C9.09443359 12.91894531 9.09121094 13.85351562 9.08789062 14.81640625 C9.07951172 15.78449219 9.07113281 16.75257812 9.0625 17.75 C9.05798828 18.73355469 9.05347656 19.71710938 9.04882812 20.73046875 C9.03706483 23.15370791 9.02062684 25.57682273 9 28 C8.67 28 8.34 28 8 28 C6.94380997 23.71702469 6.88297908 19.57014354 6.9375 15.1875 C6.94201172 14.49462891 6.94652344 13.80175781 6.95117188 13.08789062 C6.96286844 11.39188932 6.98080076 9.69593297 7 8 C6.01 8 5.02 8 4 8 C4 8.66 4 9.32 4 10 C3.34 10 2.68 10 2 10 C2 9.34 2 8.68 2 8 C1.34 8 0.68 8 0 8 C0.875 3.125 0.875 3.125 2 2 C1.34 1.34 0.68 0.68 0 0 Z " fill="#959FA3" transform="translate(224,64)"/>
<path d="M0 0 C0 2.97 0 5.94 0 9 C-3.71599191 9.20086443 -4.77208445 9.1519437 -8 7 C-8.99 7 -9.98 7 -11 7 C-11.2181301 4.30972879 -11.28470316 2.53381842 -10 0.125 C-6.67094132 -1.74759551 -3.68075232 -0.66374222 0 0 Z " fill="#D1AD4B" transform="translate(277,94)"/>
<path d="M0 0 C0.33 0 0.66 0 1 0 C1.02469081 4.3782512 1.04285557 8.75646567 1.05493164 13.13476562 C1.05996514 14.62468166 1.06679242 16.11459274 1.07543945 17.60449219 C1.08754805 19.74415304 1.09323807 21.88374868 1.09765625 24.0234375 C1.10289307 25.31169434 1.10812988 26.59995117 1.11352539 27.92724609 C1 31 1 31 0 33 C19.8 33.495 19.8 33.495 40 34 C40 34.33 40 34.66 40 35 C24.82 35 9.64 35 -6 35 C-4.35 33.35 -2.7 31.7 -1 30 C-0.22673831 26.63312102 -0.22673831 26.63312102 -0.29296875 22.94921875 C-0.27784744 22.29041214 -0.26272614 21.63160553 -0.24714661 20.95283508 C-0.20441434 18.864038 -0.19544735 16.7766898 -0.1875 14.6875 C-0.16434386 13.26493583 -0.13897617 11.84240583 -0.11132812 10.41992188 C-0.04862384 6.94664196 -0.01617216 3.47384387 0 0 Z " fill="#5D6078" transform="translate(293,121)"/>
<path d="M0 0 C0.33 0 0.66 0 1 0 C0.896875 1.258125 0.79375 2.51625 0.6875 3.8125 C0.60418432 5.99141323 0.60418432 5.99141323 1 8 C3.3549963 10.08216876 3.3549963 10.08216876 6 11 C6.12375 9.700625 6.2475 8.40125 6.375 7.0625 C6.5859375 4.84765625 6.5859375 4.84765625 7 3 C7.66 2.67 8.32 2.34 9 2 C9.33 4.31 9.66 6.62 10 9 C9.34 9 8.68 9 8 9 C8 12.3 8 15.6 8 19 C6.02 19 4.04 19 2 19 C2 16.36 2 13.72 2 11 C0.68 10.67 -0.64 10.34 -2 10 C-1.34 6.7 -0.68 3.4 0 0 Z " fill="#904827" transform="translate(257,83)"/>
<path d="M0 0 C2.79585137 3.15923789 3.33798834 5.19551024 3.4375 9.375 C3.77271294 14.29802925 4.55270932 17.26543509 8 21 C10.60437233 22.41190564 10.60437233 22.41190564 13 23 C9.86846113 24.3778771 8.71220527 23.90076044 5.375 22.75 C2 21 2 21 0 18 C-0.22705078 16.00708008 -0.22705078 16.00708008 -0.1953125 13.76953125 C-0.18886719 12.96708984 -0.18242188 12.16464844 -0.17578125 11.33789062 C-0.15902344 10.50451172 -0.14226563 9.67113281 -0.125 8.8125 C-0.11597656 7.96751953 -0.10695312 7.12253906 -0.09765625 6.25195312 C-0.07410703 4.16784757 -0.03823647 2.08388783 0 0 Z " fill="#E7D7CF" transform="translate(33,132)"/>
<path d="M0 0 C0 3.96 0 7.92 0 12 C-2.64 12 -5.28 12 -8 12 C-8 9.36 -8 6.72 -8 4 C-1.125 0 -1.125 0 0 0 Z " fill="#3B3F5E" transform="translate(236,144)"/>
<path d="M0 0 C0.66 0.33 1.32 0.66 2 1 C1.34 1.66 0.68 2.32 0 3 C-0.20872719 5.78302919 -0.25640898 7.48718205 1 10 C-2.63 10 -6.26 10 -10 10 C-10 7.69 -10 5.38 -10 3 C-11.65 3 -13.3 3 -15 3 C-14.67 4.98 -14.34 6.96 -14 9 C-19.28 9 -24.56 9 -30 9 C-30 8.67 -30 8.34 -30 8 C-25.38 8 -20.76 8 -16 8 C-16 5.69 -16 3.38 -16 1 C-13.36 1 -10.72 1 -8 1 C-8 3.64 -8 6.28 -8 9 C-6.02 9 -4.04 9 -2 9 C-2.04125 7.88625 -2.0825 6.7725 -2.125 5.625 C-2 2 -2 2 0 0 Z " fill="#88420D" transform="translate(267,93)"/>
<path d="M0 0 C1.98 0.99 1.98 0.99 4 2 C4 2.99 4 3.98 4 5 C4.61488281 5.10957031 5.22976562 5.21914062 5.86328125 5.33203125 C6.67152344 5.49058594 7.47976562 5.64914063 8.3125 5.8125 C9.11300781 5.96332031 9.91351563 6.11414063 10.73828125 6.26953125 C13.30934734 7.09991011 14.4242399 7.81229422 16 10 C16 11.32 16 12.64 16 14 C16.53625 14.0825 17.0725 14.165 17.625 14.25 C20.94568746 15.29863814 23.28517358 16.82813886 26 19 C27.0625 21.4375 27.0625 21.4375 27 24 C25.5625 26.8125 25.5625 26.8125 24 29 C22.46554906 25.93109813 23.45015711 23.29905734 24 20 C21.03 18.35 18.06 16.7 15 15 C14.67 16.32 14.34 17.64 14 19 C14 15.7 14 12.4 14 9 C13.22914063 8.91363281 12.45828125 8.82726562 11.6640625 8.73828125 C10.66117188 8.59777344 9.65828125 8.45726563 8.625 8.3125 C7.62726563 8.18488281 6.62953125 8.05726562 5.6015625 7.92578125 C3 7 3 7 1.7109375 4.54296875 C1.47632813 3.70378906 1.24171875 2.86460938 1 2 C0.67 1.34 0.34 0.68 0 0 Z " fill="#584C47" transform="translate(229,64)"/>
<path d="M0 0 C0 0.99 0 1.98 0 3 C0.33 2.01 0.66 1.02 1 0 C1.66 0 2.32 0 3 0 C2.125 6.75 2.125 6.75 1 9 C0.34 9 -0.32 9 -1 9 C-1 11.31 -1 13.62 -1 16 C-4.3 16 -7.6 16 -11 16 C-11 15.67 -11 15.34 -11 15 C-8.03 15 -5.06 15 -2 15 C-2 12.36 -2 9.72 -2 7 C-2.99 6.67 -3.98 6.34 -5 6 C-5.6875 3.9375 -5.6875 3.9375 -6 2 C-3 0 -3 0 0 0 Z " fill="#EBD9D1" transform="translate(251,84)"/>
<path d="M0 0 C1.32 0.33 2.64 0.66 4 1 C5.93495479 8.94349863 4.61090991 17.34133094 2 25 C0.83693557 21.45049966 1.07634951 18.44176052 1.4375 14.75 C1.53933594 13.67234375 1.64117187 12.5946875 1.74609375 11.484375 C1.82988281 10.66453125 1.91367188 9.8446875 2 9 C1.01 9.33 0.02 9.66 -1 10 C-1.66 8.02 -2.32 6.04 -3 4 C-2.34 3.67 -1.68 3.34 -1 3 C-0.67 2.01 -0.34 1.02 0 0 Z " fill="#BFBAB4" transform="translate(239,72)"/>
<path d="M0 0 C3.44730584 -0.39397781 4.75613114 -0.1644697 7.6875 1.8125 C10.38014957 4.35960095 11.94901806 5.90388827 12.125 9.6875 C12.08375 10.450625 12.0425 11.21375 12 12 C11.34 12 10.68 12 10 12 C9.67 18.27 9.34 24.54 9 31 C8.67 31 8.34 31 8 31 C7.98541748 30.3294458 7.97083496 29.6588916 7.95581055 28.96801758 C7.881117 25.91561178 7.78452701 22.86427415 7.6875 19.8125 C7.66494141 18.75740234 7.64238281 17.70230469 7.61914062 16.61523438 C7.58369141 15.59365234 7.54824219 14.57207031 7.51171875 13.51953125 C7.48553467 12.58214111 7.45935059 11.64475098 7.43237305 10.67895508 C6.76191269 6.5248266 5.02778371 3.85159222 1.8125 1.1875 C1.214375 0.795625 0.61625 0.40375 0 0 Z " fill="#C68976" transform="translate(420,115)"/>
<path d="M0 0 C3.96 0 7.92 0 12 0 C12.33 0.66 12.66 1.32 13 2 C12.01 3.32 11.02 4.64 10 6 C8.88625 5.7525 8.88625 5.7525 7.75 5.5 C4.80993422 4.88074304 4.80993422 4.88074304 1 5 C0.67 3.35 0.34 1.7 0 0 Z " fill="#615D47" transform="translate(243,117)"/>
<path d="M0 0 C0.90596924 0.01571045 1.81193848 0.0314209 2.74536133 0.04760742 C3.72827148 0.05727539 4.71118164 0.06694336 5.72387695 0.0769043 C6.74803711 0.10204102 7.77219727 0.12717773 8.82739258 0.15307617 C9.8631543 0.16661133 10.89891602 0.18014648 11.96606445 0.1940918 C14.5242287 0.22945812 17.08212587 0.28326522 19.63989258 0.34057617 C20.62989258 4.30057617 21.61989258 8.26057617 22.63989258 12.34057617 C21.31989258 12.34057617 19.99989258 12.34057617 18.63989258 12.34057617 C18.63989258 9.04057617 18.63989258 5.74057617 18.63989258 2.34057617 C10.71989258 2.67057617 2.79989258 3.00057617 -5.36010742 3.34057617 C-2.36010742 0.34057617 -2.36010742 0.34057617 0 0 Z " fill="#E7885E" transform="translate(202.360107421875,87.659423828125)"/>
<path d="M0 0 C0.99 0.33 1.98 0.66 3 1 C2.67 4.96 2.34 8.92 2 13 C2.66 13 3.32 13 4 13 C3.67 19.27 3.34 25.54 3 32 C2.67 32 2.34 32 2 32 C2 26.72 2 21.44 2 16 C1.34 16 0.68 16 0 16 C-0.1958009 14.08416353 -0.38132214 12.16727461 -0.5625 10.25 C-0.66691406 9.18265625 -0.77132813 8.1153125 -0.87890625 7.015625 C-0.98560074 4.35858796 -0.81930395 2.50039428 0 0 Z " fill="#B44C26" transform="translate(281,86)"/>
<path d="M0 0 C0.33 1.32 0.66 2.64 1 4 C2.94074861 3.72382467 2.94074861 3.72382467 5 3 C5.66 2.01 6.32 1.02 7 0 C7.33 5.61 7.66 11.22 8 17 C7.01 16.67 6.02 16.34 5 16 C5 13.03 5 10.06 5 7 C2.03 7 -0.94 7 -4 7 C-4 6.34 -4 5.68 -4 5 C-3.01 4.34 -2.02 3.68 -1 3 C-0.67 2.01 -0.34 1.02 0 0 Z " fill="#694D15" transform="translate(274,86)"/>
<path d="M0 0 C0.99 0.66 1.98 1.32 3 2 C3 2.66 3 3.32 3 4 C-1.29 4 -5.58 4 -10 4 C-11.09805807 8.64045375 -11.09805807 8.64045375 -11 12 C-11.99 12.66 -12.98 13.32 -14 14 C-13.835 13.484375 -13.67 12.96875 -13.5 12.4375 C-12.85872766 9.8316916 -12.85872766 9.8316916 -13.1875 6.4375 C-13 3 -13 3 -11.5625 1.0625 C-7.77956713 -0.50603314 -4.04138701 -0.57308803 0 0 Z " fill="#C3592C" transform="translate(279,81)"/>
<path d="M0 0 C0.80566406 0.04833984 1.61132812 0.09667969 2.44140625 0.14648438 C3.28316406 0.20255859 4.12492188 0.25863281 4.9921875 0.31640625 C6.26642578 0.3947168 6.26642578 0.3947168 7.56640625 0.47460938 C9.66697874 0.60442003 11.76712941 0.74102365 13.8671875 0.87890625 C13.8671875 1.20890625 13.8671875 1.53890625 13.8671875 1.87890625 C10.2371875 1.87890625 6.6071875 1.87890625 2.8671875 1.87890625 C2.8671875 2.53890625 2.8671875 3.19890625 2.8671875 3.87890625 C5.5071875 3.87890625 8.1471875 3.87890625 10.8671875 3.87890625 C10.8671875 6.51890625 10.8671875 9.15890625 10.8671875 11.87890625 C10.5371875 11.87890625 10.2071875 11.87890625 9.8671875 11.87890625 C9.8671875 9.56890625 9.8671875 7.25890625 9.8671875 4.87890625 C9.01447266 4.91371094 9.01447266 4.91371094 8.14453125 4.94921875 C2.94160102 5.07082313 -1.20593493 4.55614117 -6.1328125 2.87890625 C-6.1328125 2.21890625 -6.1328125 1.55890625 -6.1328125 0.87890625 C-3.77622853 -0.29938574 -2.60708014 -0.16523747 0 0 Z " fill="#BC9635" transform="translate(205.1328125,91.12109375)"/>
<path d="M0 0 C1.32 0 2.64 0 4 0 C4 4.95 4 9.9 4 15 C2.68 15.33 1.36 15.66 0 16 C0 10.72 0 5.44 0 0 Z " fill="#E9B22D" transform="translate(183,87)"/>
<path d="M0 0 C2.64 0 5.28 0 8 0 C7.67 5.61 7.34 11.22 7 17 C6.67 17 6.34 17 6 17 C6 12.05 6 7.1 6 2 C5.01 2.33 4.02 2.66 3 3 C3 7.62 3 12.24 3 17 C2.67 17 2.34 17 2 17 C2 12.71 2 8.42 2 4 C1.34 4 0.68 4 0 4 C0 2.68 0 1.36 0 0 Z " fill="#735223" transform="translate(181,85)"/>
<path d="M0 0 C1.32 0.33 2.64 0.66 4 1 C3.01 1.66 2.02 2.32 1 3 C1.60825035 7.34464536 2.26167392 11.67551867 3 16 C1.68 16 0.36 16 -1 16 C-2.41377341 13.36095629 -3.37240135 10.92879371 -4 8 C-3.34 7.67 -2.68 7.34 -2 7 C-1.26924352 4.6859378 -0.59861742 2.35171131 0 0 Z " fill="#743B25" transform="translate(183,68)"/>
<path d="M0 0 C0.969375 0.144375 1.93875 0.28875 2.9375 0.4375 C7.28052169 1.06047442 11.63765234 1.53507859 16 2 C16 4.31 16 6.62 16 9 C15.34 9 14.68 9 14 9 C14 7.35 14 5.7 14 4 C13.32453125 4.02320312 12.6490625 4.04640625 11.953125 4.0703125 C10.61507812 4.09738281 10.61507812 4.09738281 9.25 4.125 C8.36828125 4.14820312 7.4865625 4.17140625 6.578125 4.1953125 C3.8864142 3.99139502 2.30095026 3.36551721 0 2 C0 1.34 0 0.68 0 0 Z " fill="#504721" transform="translate(199,94)"/>
<path d="M0 0 C1.2065625 0.0309375 1.2065625 0.0309375 2.4375 0.0625 C2.4375 2.7025 2.4375 5.3425 2.4375 8.0625 C-2.4375 7.1875 -2.4375 7.1875 -3.5625 6.0625 C-3.6875 3.5625 -3.6875 3.5625 -3.5625 1.0625 C-2.5625 0.0625 -2.5625 0.0625 0 0 Z " fill="#6D3D0C" transform="translate(273.5625,94.9375)"/>
<path d="M0 0 C0.35473178 3.0743421 0.53182739 5.9406761 0 9 C-4.58536585 13 -4.58536585 13 -7 13 C-7 10.69 -7 8.38 -7 6 C-4.525 6.99 -4.525 6.99 -2 8 C-2.57344937 5.13275314 -2.8614515 4.1385485 -5 2 C-1.125 0 -1.125 0 0 0 Z " fill="#312949" transform="translate(236,135)"/>
<path d="M0 0 C3.0831351 1.19899698 6.06279492 2.47700477 9 4 C8.67 5.65 8.34 7.3 8 9 C7.34 8.34 6.68 7.68 6 7 C6.33 6.34 6.66 5.68 7 5 C5.8553125 5.495 5.8553125 5.495 4.6875 6 C2 7 2 7 -1 7 C-0.67 4.69 -0.34 2.38 0 0 Z " fill="#DCE3E6" transform="translate(244,79)"/>
<path d="M0 0 C3.375 -0.125 3.375 -0.125 7 0 C7.66 0.66 8.32 1.32 9 2 C12.06134002 2.2055706 12.06134002 2.2055706 15.5 2.0625 C21.80421053 1.90210526 21.80421053 1.90210526 24 3 C24 3.66 24 4.32 24 5 C21.20743781 4.88638398 18.41655882 4.7596411 15.625 4.625 C14.8309375 4.5940625 14.036875 4.563125 13.21875 4.53125 C7.2265625 4.2265625 7.2265625 4.2265625 5 2 C2.42938689 1.35232207 2.42938689 1.35232207 0 1 C0 0.67 0 0.34 0 0 Z " fill="#CE8664" transform="translate(208,59)"/>
<path d="M0 0 C0.33 0 0.66 0 1 0 C1 2.64 1 5.28 1 8 C1.639375 8.185625 2.27875 8.37125 2.9375 8.5625 C5 10 5 10 5.75 13.625 C5.8325 14.73875 5.915 15.8525 6 17 C5.01 17 4.02 17 3 17 C3 14.69 3 12.38 3 10 C1.35 10 -0.3 10 -2 10 C-1.34 6.7 -0.68 3.4 0 0 Z " fill="#691E07" transform="translate(257,83)"/>
<path d="M0 0 C-0.33 1.65 -0.66 3.3 -1 5 C-1.99 5.33 -2.98 5.66 -4 6 C-4.99 5.34 -5.98 4.68 -7 4 C-7 2.68 -7 1.36 -7 0 C-3.98968256 -0.93423645 -3.13349732 -1.04449911 0 0 Z " fill="#E96127" transform="translate(213,64)"/>
<path d="M0 0 C0.556875 0.268125 1.11375 0.53625 1.6875 0.8125 C0.41796875 2.27734375 -0.8515625 3.7421875 -2.12109375 5.20703125 C-3.52121231 6.91962971 -3.52121231 6.91962971 -4.3125 9.8125 C-4.9725 9.8125 -5.6325 9.8125 -6.3125 9.8125 C-7.125 7.625 -7.125 7.625 -7.3125 4.8125 C-3.43867598 -0.27881157 -3.43867598 -0.27881157 0 0 Z " fill="#E48B5D" transform="translate(40.3125,116.1875)"/>
<path d="M0 0 C-2.69378789 2.69378789 -5.22574981 3.13672837 -8.875 4.1875 C-10.10992187 4.55230469 -11.34484375 4.91710937 -12.6171875 5.29296875 C-15.68905505 5.93501035 -17.14357992 6.12677877 -20 5 C-13.58625561 2.06036715 -7.19764013 -0.44985251 0 0 Z " fill="#C16A46" transform="translate(205,61)"/>
<path d="M0 0 C2.80045623 3.14591933 3.35261589 5.067064 3.1875 9.25 C3.16042969 10.14203125 3.13335937 11.0340625 3.10546875 11.953125 C3.07066406 12.62859375 3.03585938 13.3040625 3 14 C2.34 14 1.68 14 1 14 C-0.38226016 11.23547967 -0.09525387 8.9538637 -0.0625 5.875 C-0.05347656 4.77929688 -0.04445312 3.68359375 -0.03515625 2.5546875 C-0.02355469 1.71164063 -0.01195312 0.86859375 0 0 Z " fill="#EEC1A9" transform="translate(33,132)"/>
<path d="M0 0 C0.33 1.98 0.66 3.96 1 6 C-0.65 6.33 -2.3 6.66 -4 7 C-4.66 5.35 -5.32 3.7 -6 2 C-3 0 -3 0 0 0 Z " fill="#4F626A" transform="translate(251,84)"/>
<path d="M0 0 C2.09749995 2.35968744 2.96905704 3.54616994 3.1875 6.75 C3.125625 7.4925 3.06375 8.235 3 9 C1.54207116 9.05399736 0.08357288 9.09279177 -1.375 9.125 C-2.18710938 9.14820312 -2.99921875 9.17140625 -3.8359375 9.1953125 C-6 9 -6 9 -8 7 C-5.03 7 -2.06 7 1 7 C0.67 4.69 0.34 2.38 0 0 Z " fill="#8A3F0D" transform="translate(229,94)"/>
<path d="M0 0 C0.33 0 0.66 0 1 0 C1 1.98 1 3.96 1 6 C-4.41538462 9.07692308 -4.41538462 9.07692308 -7.375 8.6875 C-7.91125 8.460625 -8.4475 8.23375 -9 8 C-8.05125 7.773125 -7.1025 7.54625 -6.125 7.3125 C-2.81511807 6.31697917 -2.81511807 6.31697917 -1.6875 3.4375 C-1.460625 2.633125 -1.23375 1.82875 -1 1 C-0.67 0.67 -0.34 0.34 0 0 Z " fill="#CFCCDB" transform="translate(428,147)"/>
<path d="M0 0 C9.41002278 -0.18451025 9.41002278 -0.18451025 14 1 C14 1.66 14 2.32 14 3 C12.04233719 3.08082094 10.08373272 3.13910778 8.125 3.1875 C6.48917969 3.23970703 6.48917969 3.23970703 4.8203125 3.29296875 C3.88960937 3.19628906 2.95890625 3.09960938 2 3 C1.34 2.01 0.68 1.02 0 0 Z " fill="#CF6F46" transform="translate(241,123)"/>
<path d="M0 0 C0.33 0.99 0.66 1.98 1 3 C1.66 3 2.32 3 3 3 C3 5.97 3 8.94 3 12 C2.34 12 1.68 12 1 12 C-0.3271261 8.0186217 -0.06915913 4.14954773 0 0 Z " fill="#F3AC88" transform="translate(429,124)"/>
<path d="M0 0 C1.98 0 3.96 0 6 0 C5.67 1.32 5.34 2.64 5 4 C3.68 4.33 2.36 4.66 1 5 C0.67 3.35 0.34 1.7 0 0 Z " fill="#CC4214" transform="translate(230,121)"/>
<path d="M0 0 C1.32 0.66 2.64 1.32 4 2 C4 2.99 4 3.98 4 5 C0.25 6.125 0.25 6.125 -2 5 C-1.34 3.35 -0.68 1.7 0 0 Z " fill="#D5D7E3" transform="translate(231,146)"/>
<path d="M0 0 C0.99 0 1.98 0 3 0 C3.33 1.65 3.66 3.3 4 5 C0.25 6.125 0.25 6.125 -2 5 C-1.34 3.35 -0.68 1.7 0 0 Z " fill="#C0C1D1" transform="translate(231,129)"/>
<path d="M0 0 C0.78375 0.185625 1.5675 0.37125 2.375 0.5625 C4.97089775 1.25962266 4.97089775 1.25962266 7 0 C6.34 1.32 5.68 2.64 5 4 C4.01 4 3.02 4 2 4 C2 4.99 2 5.98 2 7 C1.34 7 0.68 7 0 7 C0 4.69 0 2.38 0 0 Z " fill="#382A47" transform="translate(229,124)"/>
<path d="M0 0 C2.64 0 5.28 0 8 0 C8 0.99 8 1.98 8 3 C5.69 3 3.38 3 1 3 C0.67 2.01 0.34 1.02 0 0 Z " fill="#5A2625" transform="translate(228,118)"/>
<path d="M0 0 C1.5625 1.625 1.5625 1.625 3 4 C2.77962372 7.67293796 2.63033454 9.36966546 0 12 C-0.92844389 7.66726186 -0.92844389 4.33273814 0 0 Z " fill="#EDD5CE" transform="translate(429,140)"/>
<path d="M0 0 C0.99 0.99 1.98 1.98 3 3 C1.68 4.32 0.36 5.64 -1 7 C-1.66 5.35 -2.32 3.7 -3 2 C-2.01 1.34 -1.02 0.68 0 0 Z " fill="#E3622A" transform="translate(239,74)"/>
<path d="M0 0 C0.99 0 1.98 0 3 0 C3.33 4.29 3.66 8.58 4 13 C1.99706653 9.99559979 1.50728374 8.29006055 0.875 4.8125 C0.70742187 3.91144531 0.53984375 3.01039062 0.3671875 2.08203125 C0.24601563 1.39496094 0.12484375 0.70789063 0 0 Z " fill="#DAE1E4" transform="translate(219,74)"/>
<path d="M0 0 C0.99 0.33 1.98 0.66 3 1 C2.34 1 1.68 1 1 1 C0.67 3.97 0.34 6.94 0 10 C-1.625 8.3125 -1.625 8.3125 -3 6 C-2.33228817 3.60736593 -1.77902615 1.77902615 0 0 Z " fill="#A2593A" transform="translate(182,67)"/>
<path d="M0 0 C2.475 0.495 2.475 0.495 5 1 C4.34 2.32 3.68 3.64 3 5 C2.01 4.67 1.02 4.34 0 4 C0 2.68 0 1.36 0 0 Z " fill="#E1C781" transform="translate(250,118)"/>
<path d="M0 0 C1.32 0 2.64 0 4 0 C3.67 1.65 3.34 3.3 3 5 C1.68 4.34 0.36 3.68 -1 3 C-0.67 2.01 -0.34 1.02 0 0 Z " fill="#E1C985" transform="translate(244,118)"/>
<path d="M0 0 C1.9375 0.3125 1.9375 0.3125 4 1 C4.33 1.99 4.66 2.98 5 4 C3.02 4 1.04 4 -1 4 C-0.67 2.68 -0.34 1.36 0 0 Z " fill="#283E46" transform="translate(225,67)"/>
<path d="M0 0 C1.65 0 3.3 0 5 0 C4.67 1.32 4.34 2.64 4 4 C2.68 4 1.36 4 0 4 C0 2.68 0 1.36 0 0 Z " fill="#D7A622" transform="translate(275,86)"/>
<path d="M0 0 C2.64 1.32 5.28 2.64 8 4 C3.59232396 5.10191901 2.1077065 4.58706842 -2 3 C-1.34 2.67 -0.68 2.34 0 2 C0 1.34 0 0.68 0 0 Z " fill="#C8C7CD" transform="translate(38,151)"/>
<path d="M0 0 C1.32 0.66 2.64 1.32 4 2 C3.67 2.99 3.34 3.98 3 5 C1.68 4.67 0.36 4.34 -1 4 C-0.67 2.68 -0.34 1.36 0 0 Z " fill="#CD491D" transform="translate(231,138)"/>
<path d="M0 0 C0.99 0 1.98 0 3 0 C3 1.65 3 3.3 3 5 C1.68 4.67 0.36 4.34 -1 4 C-0.67 2.68 -0.34 1.36 0 0 Z " fill="#C14614" transform="translate(272,96)"/>
<path d="M0 0 C0.99 0.33 1.98 0.66 3 1 C3 2.32 3 3.64 3 5 C1.68 5 0.36 5 -1 5 C-0.67 3.35 -0.34 1.7 0 0 Z " fill="#DCA924" transform="translate(270,85)"/>
<path d="M0 0 C0.763125 0.20625 1.52625 0.4125 2.3125 0.625 C2.6425 1.615 2.9725 2.605 3.3125 3.625 C-1.1425 2.635 -1.1425 2.635 -5.6875 1.625 C-2.6875 -0.375 -2.6875 -0.375 0 0 Z " fill="#BC6F4F" transform="translate(278.6875,81.375)"/>
<path d="M0 0 C4.24480464 -0.33292585 6.35542625 -0.43885872 9.9375 2 C10.618125 2.66 11.29875 3.32 12 4 C9.625 4.125 9.625 4.125 7 4 C6.34 3.34 5.68 2.68 5 2 C2.42938689 1.35232207 2.42938689 1.35232207 0 1 C0 0.67 0 0.34 0 0 Z " fill="#BC6A49" transform="translate(208,59)"/>
<path d="M0 0 C0 2.31 0 4.62 0 7 C-0.99 7.495 -0.99 7.495 -2 8 C-2.185625 7.071875 -2.185625 7.071875 -2.375 6.125 C-2.87197356 3.80879168 -2.87197356 3.80879168 -5 2 C-1.125 0 -1.125 0 0 0 Z " fill="#492736" transform="translate(236,135)"/>
<path d="M0 0 C1.65 0 3.3 0 5 0 C5 1.98 5 3.96 5 6 C4.34 6 3.68 6 3 6 C3 4.68 3 3.36 3 2 C2.01 1.67 1.02 1.34 0 1 C0 0.67 0 0.34 0 0 Z " fill="#E6B537" transform="translate(230,96)"/>
<path d="M0 0 C2.12508244 3.18762365 2.5020163 5.26512223 3 9 C2.01 9 1.02 9 0 9 C0 6.03 0 3.06 0 0 Z " fill="#F0E2D7" transform="translate(222,91)"/>
</svg>
