<?xml version="1.0" encoding="utf-8"?>
<!-- Generator: Adobe Illustrator 23.0.2, SVG Export Plug-In . SVG Version: 6.00 Build 0)  -->
<svg version="1.1" id="Layer_1" xmlns="http://www.w3.org/2000/svg" xmlns:xlink="http://www.w3.org/1999/xlink" x="0px" y="0px"
	 viewBox="0 0 268 361" style="enable-background:new 0 0 268 361;" xml:space="preserve">
<style type="text/css">
	.st0{fill:#050002;}
</style>
<g>
	
	<path class="st0" d="M54.3,39.7c-5.3-6.9-9.9-14.3-9.9-14.3s-4.7,7.4-9.9,14.3c-5.3,6.9-6.5,10.4-6.5,14.3c0,3.9,2.3,8.4,7.1,8.4
		c4.8,0,7.4-5,7.4-8.3h0.7c0.3,5-0.8,10.1-3.3,14.4c3.1,0,6.1,0,9.2,0c-2.5-4.3-3.6-9.4-3.3-14.4h0.7c0,3.3,2.6,8.3,7.4,8.3
		s7.1-4.5,7.1-8.4C60.8,50,59.6,46.6,54.3,39.7z"/>
	<path class="st0" d="M212.2,321.2c5.3,6.9,9.9,14.3,9.9,14.3s4.7-7.4,9.9-14.3c5.3-6.9,6.5-10.4,6.5-14.3c0-3.9-2.3-8.4-7.1-8.4
		c-4.8,0-7.4,5-7.4,8.3h-0.7c-0.3-5,0.8-10.1,3.3-14.4c-3.1,0-6.1,0-9.2,0c2.5,4.3,3.6,9.4,3.3,14.4h-0.7c0-3.3-2.6-8.3-7.4-8.3
		s-7.1,4.5-7.1,8.4C205.7,310.8,206.9,314.3,212.2,321.2z"/>
</g>
</svg>
